<?xml version="1.0" encoding="utf-8"?>
<!-- Generator: Adobe Illustrator 18.1.1, SVG Export Plug-In . SVG Version: 6.00 Build 0)  -->
<svg version="1.1" id="Layer_1" xmlns="http://www.w3.org/2000/svg" xmlns:xlink="http://www.w3.org/1999/xlink" x="0px" y="0px"
	 viewBox="0 0 612 792" enable-background="new 0 0 612 792" xml:space="preserve">
<g id="body">
	<g>
		<g>
			<g>
				<path d="M248.2,750.7c-5.5,0.2-11.5,0.8-17.6,0.8c-7.7,0.2-11.9,3.6-11.7,11.7c0.2,6.3,0,14.5,0.2,21c0,5-1.9,7.5-7.3,7.5
					c-34.6,0.6-69.4-0.4-104.1,0c-3.1,0-7.5-3.3-8.8-5.9C71.8,725.9,87,668.7,139.2,628.9c30.2-23,64.5-33.7,102-35.6
					c5.5-0.2,9,0.8,8.8,7.7c-0.4,49-0.6,97.9-0.8,147.1C249.2,748.6,248.8,749.2,248.2,750.7z M194.5,714
					c0.2-18.4-13.4-32.5-31.2-32.7c-18.6-0.2-33.3,13.6-33.5,31.8c-0.4,18.2,14,33.3,31.9,33.5C179.9,746.5,194.3,732.4,194.5,714z"
					/>
				<path d="M393.6,791.1c-0.2-5.2-0.2-24.3-0.4-29.5c-0.8-15.3-7.5-10.7-29.8-12.2c-1.3-26.6-2.5-53.4-3.8-80.3
					c1-0.2,0.8-0.2,1.5-0.4c3.1,7.3,5.5,14.5,9.2,21.6c23.5,46.3,92.4,50.9,117.7,5.9c1.9-3.3,4-6.5,6.5-9.4
					c10.9-13.6,23.1-12.1,27.9,4.8c3.6,12.6,5.9,26.4,5,39.4c-1.3,16.3-6.3,38.1-10.5,53.9c-0.6,2.5-5.2,5.4-8,5.5
					c-29.3,0.6-58.5,0.8-87.8,0.8"/>
				<path fill="#FFFFFF" d="M194.5,714c-0.2,18.4-14.5,32.7-32.7,32.3c-18-0.2-32.3-15.3-31.9-33.5c0.4-18.2,14.9-31.9,33.5-31.8
					C181.1,681.5,194.7,695.6,194.5,714z"/>
			</g>
		</g>
	</g>
</g>
<g id="neck">
	<g>
		<g>
			<path fill="#3C2415" d="M339.3,748.2h-67.5c-8,0-14.5-6.5-14.3-14.5L263,20.1c0-7.8,6.5-14.3,14.3-14.3h43.6
				c7.8,0,14.2,6.3,14.3,14.2l18.4,713.6C354,741.5,347.5,748.2,339.3,748.2z"/>
		</g>
	</g>
	<polygon fill="#FFFFFF" points="328.2,176 276,176 270,152.3 332,152.3 	"/>
	<polygon fill="#FFFFFF" points="328.4,65.1 274.2,65.1 268.1,41.4 332.4,41.4 	"/>
	<polygon fill="#FFFFFF" points="326.5,278.8 275.8,278.8 270,253.9 330.3,253.9 	"/>
	<polygon fill="#FFFFFF" points="323,357.8 280.6,357.8 275.8,338.3 326.3,338.3 	"/>
	<polygon fill="#FFFFFF" points="321.3,420.5 283.8,420.5 279.6,403.3 324.2,403.3 	"/>
	<polygon fill="#FFFFFF" points="323.4,499.9 285.9,499.9 281.5,482.7 326.3,482.7 	"/>
	<polygon fill="#FFFFFF" points="321.5,563.6 290.9,563.6 287.3,549.7 323.8,549.7 	"/>
	<polygon fill="#FFFFFF" points="321.5,605.7 290.9,605.7 287.3,591.7 323.8,591.7 	"/>
	<polygon fill="#FFFFFF" points="321.5,647.8 290.9,647.8 287.3,633.8 323.8,633.8 	"/>
	<polygon fill="#FFFFFF" points="321.5,689.9 290.9,689.9 287.3,675.9 323.8,675.9 	"/>
	<line fill="none" x1="270" y1="256" x2="329.9" y2="256"/>
	<line fill="none" stroke="#BCBEC0" stroke-width="2" stroke-miterlimit="10" x1="262.8" y1="81.3" x2="335.5" y2="81"/>
	<line fill="none" stroke="#BCBEC0" stroke-width="2" stroke-miterlimit="10" x1="262.8" y1="134.9" x2="338.3" y2="134.5"/>
	<line fill="none" stroke="#BCBEC0" stroke-width="2" stroke-miterlimit="10" x1="262.8" y1="192.3" x2="339.3" y2="191.9"/>
	<line fill="none" stroke="#BCBEC0" stroke-width="2" stroke-miterlimit="10" x1="262.8" y1="244" x2="341.2" y2="243.6"/>
	<line fill="none" stroke="#BCBEC0" stroke-width="2" stroke-miterlimit="10" x1="262.8" y1="288" x2="341.2" y2="287.6"/>
	<line fill="none" stroke="#BCBEC0" stroke-width="2" stroke-miterlimit="10" x1="260.9" y1="330" x2="343.1" y2="329.7"/>
	<line fill="none" stroke="#BCBEC0" stroke-width="2" stroke-miterlimit="10" x1="260.9" y1="366.4" x2="345" y2="366"/>
	<line fill="none" stroke="#BCBEC0" stroke-width="2" stroke-miterlimit="10" x1="260.9" y1="398.9" x2="345" y2="398.5"/>
	<line fill="none" stroke="#BCBEC0" stroke-width="2" stroke-miterlimit="10" x1="260.9" y1="425.7" x2="345" y2="425.3"/>
	<line fill="none" stroke="#BCBEC0" stroke-width="2" stroke-miterlimit="10" x1="258.9" y1="452.5" x2="346.9" y2="452.1"/>
	<line fill="none" stroke="#BCBEC0" stroke-width="2" stroke-miterlimit="10" x1="258.9" y1="479.3" x2="346.9" y2="478.9"/>
	<line fill="none" stroke="#BCBEC0" stroke-width="2" stroke-miterlimit="10" x1="258.9" y1="504.1" x2="346.9" y2="503.7"/>
	<line fill="none" stroke="#BCBEC0" stroke-width="2" stroke-miterlimit="10" x1="258.9" y1="525.2" x2="348.9" y2="524.8"/>
	<line fill="none" stroke="#BCBEC0" stroke-width="2" stroke-miterlimit="10" x1="258.9" y1="546.2" x2="348.9" y2="545.8"/>
	<line fill="none" stroke="#BCBEC0" stroke-width="2" stroke-miterlimit="10" x1="258.9" y1="567.5" x2="348.9" y2="567.3"/>
	<line fill="none" stroke="#BCBEC0" stroke-width="2" stroke-miterlimit="10" x1="258.9" y1="588.5" x2="350.8" y2="588.3"/>
	<line fill="none" stroke="#BCBEC0" stroke-width="2" stroke-miterlimit="10" x1="258.9" y1="609.5" x2="350.8" y2="609.3"/>
	<line fill="none" stroke="#BCBEC0" stroke-width="2" stroke-miterlimit="10" x1="258.9" y1="630.6" x2="350.8" y2="630.4"/>
	<line fill="none" stroke="#BCBEC0" stroke-width="2" stroke-miterlimit="10" x1="258.9" y1="651.6" x2="350.8" y2="651.4"/>
	<line fill="none" stroke="#BCBEC0" stroke-width="2" stroke-miterlimit="10" x1="258.9" y1="672.7" x2="350.8" y2="672.5"/>
	<line fill="none" stroke="#BCBEC0" stroke-width="2" stroke-miterlimit="10" x1="258.9" y1="693.7" x2="352.7" y2="693.5"/>
	<line fill="none" stroke="#BCBEC0" stroke-width="2" stroke-miterlimit="10" x1="258.9" y1="716.7" x2="352.7" y2="716.5"/>
	<rect x="263.1" y="14.4" fill="#FFFFFF" width="72.3" height="5.4"/>
	<rect id="_x3C_Slice_x3E_" x="81.2" y="1" fill="none" width="449.6" height="792"/>
</g>
</svg>
