<?xml version="1.0" encoding="utf-8"?>
<!-- Generator: Adobe Illustrator 18.1.1, SVG Export Plug-In . SVG Version: 6.00 Build 0)  -->
<svg version="1.1" id="Layer_1" xmlns="http://www.w3.org/2000/svg" xmlns:xlink="http://www.w3.org/1999/xlink" x="0px" y="0px"
	 viewBox="0 -157 612 949" enable-background="new 0 -157 612 949" xml:space="preserve">
<g id="Layer_1_1_">
	<g id="body">
		<g>
			<g>
				<g>
					<path stroke="#F9F6C0" stroke-miterlimit="10" d="M248.4,748.7c-5.5,0.2-11.5,0.8-17.6,0.8c-7.7,0.2-11.8,3.6-11.7,11.7
						c0.2,6.3,0,14.5,0.2,20.9c0,5-1.9,7.5-7.3,7.5c-34.6,0.6-69.4-0.4-104.1,0c-3.1,0-7.5-3.4-8.9-5.9
						C72,724.1,87.2,666.9,139.3,627c30.2-23,64.5-33.8,102-35.5c5.5-0.2,9,0.8,8.9,7.7c-0.4,49-0.6,97.9-0.8,147.1
						C249.3,746.6,249,747.2,248.4,748.7z M194.6,712c0.2-18.4-13.4-32.6-31.2-32.7c-18.6-0.2-33.3,13.6-33.5,31.8
						c-0.4,18.2,14,33.3,32,33.5C180.2,744.6,194.5,730.4,194.6,712z"/>
					<path stroke="#F9F6C0" stroke-miterlimit="10" d="M393.8,789.1c-0.2-5.1-0.2-24.3-0.4-29.4c-0.8-15.3-7.5-10.7-29.8-12.2
						c-1.3-26.6-2.5-53.4-3.8-80.3c1-0.2,0.8-0.2,1.6-0.4c3.1,7.3,5.5,14.5,9.2,21.5c23.5,46.3,92.4,50.9,117.7,5.9
						c1.9-3.4,3.9-6.5,6.5-9.5c10.9-13.6,23.1-12.1,27.9,4.8c3.6,12.6,5.9,26.5,5,39.4c-1.3,16.3-6.3,38.1-10.5,53.9
						c-0.6,2.5-5.1,5.4-8,5.5c-29.3,0.6-58.5,0.8-87.9,0.8C393.8,789.1,393.8,789.1,393.8,789.1z"/>
					<path fill="#FFFFFF" d="M194.6,712c-0.2,18.4-14.5,32.7-32.7,32.3c-18-0.2-32.3-15.3-32-33.5c0.4-18.2,14.8-32,33.5-31.8
						C181.4,679.4,194.9,693.6,194.6,712z"/>
				</g>
			</g>
		</g>
	</g>
	<g id="neck">
		<g>
			<g>
				<path fill="#3C2415" stroke="#F9F6C0" stroke-miterlimit="10" d="M339.5,746.2H272c-8,0-14.5-6.5-14.2-14.5l5.5-713.6
					c0-7.8,6.5-14.2,14.2-14.2H321c7.8,0,14.2,6.3,14.2,14.2l18.4,713.6C354.2,739.5,347.7,746.2,339.5,746.2z"/>
			</g>
		</g>
		<polygon fill="#FFFFFF" points="328.3,174 276.2,174 270.2,150.3 332.2,150.3 		"/>
		<polygon fill="#FFFFFF" points="328.6,63.2 274.4,63.2 268.3,39.5 332.7,39.5 		"/>
		<polygon fill="#FFFFFF" points="326.7,276.8 276,276.8 270.2,251.9 330.5,251.9 		"/>
		<polygon fill="#FFFFFF" points="323.2,355.8 280.8,355.8 276,336.3 326.5,336.3 		"/>
		<polygon fill="#FFFFFF" points="321.5,418.5 284.1,418.5 279.7,401.3 324.4,401.3 		"/>
		<polygon fill="#FFFFFF" points="323.6,497.9 286.1,497.9 281.7,480.8 326.5,480.8 		"/>
		<polygon fill="#FFFFFF" points="321.6,561.6 291.1,561.6 287.5,547.7 324,547.7 		"/>
		<polygon fill="#FFFFFF" points="321.6,603.7 291.1,603.7 287.5,589.7 324,589.7 		"/>
		<polygon fill="#FFFFFF" points="321.6,645.8 291.1,645.8 287.5,631.8 324,631.8 		"/>
		<polygon fill="#FFFFFF" points="321.6,687.9 291.1,687.9 287.5,673.9 324,673.9 		"/>
		<line fill="none" x1="270.2" y1="254.1" x2="330.1" y2="254.1"/>
		<line fill="none" stroke="#BCBEC0" stroke-width="2" stroke-miterlimit="10" x1="263.4" y1="79.3" x2="336.4" y2="79.1"/>
		<line fill="none" stroke="#BCBEC0" stroke-width="2" stroke-miterlimit="10" x1="263" y1="132.9" x2="337.6" y2="132.6"/>
		<line fill="none" stroke="#BCBEC0" stroke-width="2" stroke-miterlimit="10" x1="262.2" y1="190.3" x2="339.5" y2="189.9"/>
		<line fill="none" stroke="#BCBEC0" stroke-width="2" stroke-miterlimit="10" x1="261.8" y1="242" x2="340.6" y2="241.6"/>
		<line fill="none" stroke="#BCBEC0" stroke-width="2" stroke-miterlimit="10" x1="261.8" y1="286" x2="341.4" y2="285.7"/>
		<line fill="none" stroke="#BCBEC0" stroke-width="2" stroke-miterlimit="10" x1="261.4" y1="328" x2="342.7" y2="327.7"/>
		<line fill="none" stroke="#BCBEC0" stroke-width="2" stroke-miterlimit="10" x1="261.1" y1="364.4" x2="344" y2="364.1"/>
		<line fill="none" stroke="#BCBEC0" stroke-width="2" stroke-miterlimit="10" x1="261.1" y1="397" x2="344.7" y2="396.5"/>
		<line fill="none" stroke="#BCBEC0" stroke-width="2" stroke-miterlimit="10" x1="261" y1="423.7" x2="345.2" y2="423.3"/>
		<line fill="none" stroke="#BCBEC0" stroke-width="2" stroke-miterlimit="10" x1="260.4" y1="450.5" x2="345.9" y2="450.1"/>
		<line fill="none" stroke="#BCBEC0" stroke-width="2" stroke-miterlimit="10" x1="260.4" y1="477.3" x2="346.4" y2="476.9"/>
		<line fill="none" stroke="#BCBEC0" stroke-width="2" stroke-miterlimit="10" x1="260.4" y1="477.3" x2="345.2" y2="476.9"/>
		<line fill="none" stroke="#BCBEC0" stroke-width="2" stroke-miterlimit="10" x1="260.4" y1="502.1" x2="347.1" y2="501.7"/>
		<line fill="none" stroke="#BCBEC0" stroke-width="2" stroke-miterlimit="10" x1="259.8" y1="523.2" x2="347.9" y2="522.8"/>
		<line fill="none" stroke="#BCBEC0" stroke-width="2" stroke-miterlimit="10" x1="259.8" y1="544.2" x2="349" y2="543.8"/>
		<line fill="none" stroke="#BCBEC0" stroke-width="2" stroke-miterlimit="10" x1="259.8" y1="565.5" x2="349" y2="565.3"/>
		<line fill="none" stroke="#BCBEC0" stroke-width="2" stroke-miterlimit="10" x1="259.4" y1="586.6" x2="349.8" y2="586.3"/>
		<line fill="none" stroke="#BCBEC0" stroke-width="2" stroke-miterlimit="10" x1="259.2" y1="607.5" x2="349.8" y2="607.3"/>
		<line fill="none" stroke="#BCBEC0" stroke-width="2" stroke-miterlimit="10" x1="259.2" y1="628.6" x2="351" y2="628.5"/>
		<line fill="none" stroke="#BCBEC0" stroke-width="2" stroke-miterlimit="10" x1="259.2" y1="649.6" x2="351" y2="649.4"/>
		<line fill="none" stroke="#BCBEC0" stroke-width="2" stroke-miterlimit="10" x1="258.6" y1="670.7" x2="351.9" y2="670.5"/>
		<line fill="none" stroke="#BCBEC0" stroke-width="2" stroke-miterlimit="10" x1="258.6" y1="691.7" x2="352.2" y2="691.5"/>
		<line fill="none" stroke="#BCBEC0" stroke-width="2" stroke-miterlimit="10" x1="258.6" y1="714.8" x2="352.9" y2="714.5"/>
		<rect x="263.4" y="12.4" fill="#FFFFFF" width="72.3" height="5.4"/>
		<rect id="_x3C_Slice_x3E_" x="81.4" y="-1" fill="none" width="449.6" height="792"/>
	</g>
</g>
<g id="Layer_4">
	<rect x="337.4" y="-110.6" fill="#ADADAD" width="10.4" height="3.2"/>
	<path fill="#F9F6C0" d="M354.7-101.3h-5.7c-1.6,0-2.8-1.3-2.8-2.8v-9.5c0-1.6,1.3-2.8,2.8-2.8h5.7c1.6,0,2.8,1.3,2.8,2.8v9.5
		C357.5-102.6,356.4-101.3,354.7-101.3z"/>
	<rect x="336.4" y="-79.6" fill="#ADADAD" width="10.4" height="3.2"/>
	<path fill="#F9F6C0" d="M353.7-70.4H348c-1.6,0-2.8-1.3-2.8-2.8v-9.5c0-1.6,1.3-2.8,2.8-2.8h5.7c1.6,0,2.8,1.3,2.8,2.8v9.5
		C356.6-71.6,355.3-70.4,353.7-70.4z"/>
	<rect x="336.4" y="-48.6" fill="#ADADAD" width="10.4" height="3.2"/>
	<path fill="#F9F6C0" d="M353.7-39.4H348c-1.6,0-2.8-1.3-2.8-2.8v-9.5c0-1.6,1.3-2.8,2.8-2.8h5.7c1.6,0,2.8,1.3,2.8,2.8v9.5
		C356.6-40.6,355.3-39.4,353.7-39.4z"/>
	<rect x="252.2" y="-110.6" fill="#ADADAD" width="10.4" height="3.2"/>
	<path fill="#F9F6C0" d="M245.3-101.3h5.7c1.6,0,2.8-1.3,2.8-2.8v-9.5c0-1.6-1.3-2.8-2.8-2.8h-5.7c-1.6,0-2.8,1.3-2.8,2.8v9.5
		C242.4-102.6,243.7-101.3,245.3-101.3z"/>
	<rect x="253.2" y="-79.6" fill="#ADADAD" width="10.4" height="3.2"/>
	<path fill="#F9F6C0" d="M246.4-70.4h5.7c1.6,0,2.8-1.3,2.8-2.8v-9.5c0-1.6-1.3-2.8-2.8-2.8h-5.7c-1.6,0-2.8,1.3-2.8,2.8v9.5
		C243.4-71.6,244.7-70.4,246.4-70.4z"/>
	<rect x="253.2" y="-48.6" fill="#ADADAD" width="10.4" height="3.2"/>
	<path fill="#F9F6C0" d="M246.4-39.4h5.7c1.6,0,2.8-1.3,2.8-2.8v-9.5c0-1.6-1.3-2.8-2.8-2.8h-5.7c-1.6,0-2.8,1.3-2.8,2.8v9.5
		C243.4-40.6,244.7-39.4,246.4-39.4z"/>
</g>
<g id="Layer_2">
	<path stroke="#F9F6C0" stroke-miterlimit="10" d="M250.1-141.5c-0.2-0.5,0.1-1,0.6-1c9.8-0.6,13,3.9,25-3c14-8.4,23-3.2,25.5-1.3
		c0.4,0.4,1,0.4,1.6,0c2.4-1.8,10.3-6.3,21.3,0c10.4,6,17,5.1,26.2,4.4c1-0.1,1.7,1,1.3,1.8c-5.4,11-15.2,61.9-9.9,115.6
		c0,0.2,0,0.5-0.1,0.7c-1.1,2.2-7.4,15.4-6.5,35.5c0,0.7-0.5,1.4-1.3,1.4h-68.3c-0.8,0-1.4-0.7-1.3-1.6c0.8-4.8,2.6-20.2-5.1-33.2
		c-0.4-0.7-0.6-1.4-0.6-2.2C258.6-34.3,263.8-107.9,250.1-141.5z"/>
</g>
<g id="Layer_3">
	<circle fill="#ADADAD" stroke="#000000" stroke-width="0.5" stroke-miterlimit="10" cx="275" cy="-108.7" r="5.1"/>
	<circle fill="#ADADAD" stroke="#000000" stroke-width="0.5" stroke-miterlimit="10" cx="275.4" cy="-109.2" r="2.5"/>
	<circle fill="#ADADAD" stroke="#000000" stroke-width="0.5" stroke-miterlimit="10" cx="275" cy="-77.7" r="5.1"/>
	<circle fill="#ADADAD" stroke="#000000" stroke-width="0.5" stroke-miterlimit="10" cx="275.4" cy="-78.2" r="2.5"/>
	<circle fill="#ADADAD" stroke="#000000" stroke-width="0.5" stroke-miterlimit="10" cx="275" cy="-46.7" r="5.1"/>
	<circle fill="#ADADAD" stroke="#000000" stroke-width="0.5" stroke-miterlimit="10" cx="275.4" cy="-47.2" r="2.5"/>
	<circle fill="#ADADAD" stroke="#000000" stroke-width="0.5" stroke-miterlimit="10" cx="327" cy="-108.7" r="5.1"/>
	<circle fill="#ADADAD" stroke="#000000" stroke-width="0.5" stroke-miterlimit="10" cx="327.4" cy="-109.2" r="2.5"/>
	<circle fill="#ADADAD" stroke="#000000" stroke-width="0.5" stroke-miterlimit="10" cx="327" cy="-77.7" r="5.1"/>
	<circle fill="#ADADAD" stroke="#000000" stroke-width="0.5" stroke-miterlimit="10" cx="327.4" cy="-78.2" r="2.5"/>
	<circle fill="#ADADAD" stroke="#000000" stroke-width="0.5" stroke-miterlimit="10" cx="327" cy="-46.7" r="5.1"/>
	<circle fill="#ADADAD" stroke="#000000" stroke-width="0.5" stroke-miterlimit="10" cx="327.4" cy="-47.2" r="2.5"/>
</g>
</svg>
