<?xml version="1.0" encoding="utf-8"?>
<!-- Generator: Adobe Illustrator 18.1.1, SVG Export Plug-In . SVG Version: 6.00 Build 0)  -->
<svg version="1.1" xmlns="http://www.w3.org/2000/svg" xmlns:xlink="http://www.w3.org/1999/xlink" x="0px" y="0px"
	 viewBox="0 0 308 414.6" enable-background="new 0 0 308 414.6" xml:space="preserve">
<g id="body">
	<g>
		<path d="M124.4,392.3c-2.9,0.1-6,0.3-9.2,0.4c-4,0.1-6.2,1.8-6.1,6.1c0.1,3.3,0,7.6,0,11c0,2.6-1,3.8-3.8,3.9
			c-18.1,0.2-36.3-0.3-54.4-0.3c-1.6,0-3.9-1.7-4.6-3.2c-14-31.3-6-61.2,21.5-81.8c15.9-11.9,33.8-17.4,53.4-18.3
			c2.9-0.1,4.7,0.4,4.6,4c-0.4,25.6-0.6,51.2-0.8,76.9C124.9,391.2,124.7,391.5,124.4,392.3z M96.4,373c0.2-9.6-6.9-17-16.2-17.2
			c-9.7-0.2-17.4,7-17.6,16.5c-0.2,9.5,7.2,17.4,16.6,17.6C88.7,390,96.3,382.6,96.4,373z"/>
		<path d="M200.3,413.8c-0.1-2.7,0-12.8-0.2-15.4c-0.3-8-3.9-5.6-15.5-6.5c-0.6-13.9-1.2-27.9-1.8-42c0.5-0.1,0.4-0.1,0.8-0.2
			c1.6,3.8,2.9,7.7,4.7,11.3c12.2,24.3,48.1,26.8,61.5,3.4c1-1.7,2.2-3.4,3.4-4.9c5.7-7,12.1-6.2,14.6,2.6c1.9,6.6,3,13.8,2.5,20.6
			c-0.7,8.5-3.4,19.9-5.6,28.2c-0.3,1.3-2.8,2.8-4.2,2.8c-15.3,0.3-30.6,0.3-45.9,0.2"/>
		<path fill="#FFFFFF" d="M96.4,373c-0.2,9.6-7.7,17-17.2,16.8c-9.4-0.2-16.8-8-16.6-17.6c0.2-9.5,7.9-16.7,17.6-16.5
			C89.5,355.9,96.6,363.4,96.4,373z M82.3,368.7c0.7,0,1.5,0,2.9,0c-2.9-3.8-5.9-4-9-1.9c-3.5,2.3-5.7,5.4-3.6,9.7
			c1.8,3.8,5.1,5.4,9.1,4.2c3-0.9,6.3-2.3,3.1-6.7c-1.1-1.5-1.5-3.6-2.3-5.5L82.3,368.7z"/>
	</g>
</g>
<g id="neck">
	<path fill="#3C2415" d="M172,391.3l-35.3-0.2c-4.2,0-7.6-3.5-7.5-7.6l4.7-373c0.1-4.1,3.4-7.5,7.6-7.5l22.8,0.1
		c4.1,0,7.4,3.3,7.5,7.4l7.8,373.1C179.7,387.8,176.3,391.3,172,391.3z"/>
	<polygon fill="#FFFFFF" points="167.6,92.1 140.3,92 137.3,79.6 169.8,79.7 	"/>
	<polygon fill="#FFFFFF" points="166.9,32.1 139.6,32 136.6,19.6 169,19.7 	"/>
	<polygon fill="#FFFFFF" points="167.4,145.8 141,145.7 138,132.7 169.5,132.9 	"/>
	<polygon fill="#FFFFFF" points="165.5,187.1 143.3,187 140.8,176.8 167.3,176.9 	"/>
	<polygon fill="#FFFFFF" points="164.4,219.9 144.8,219.8 142.7,210.8 166,210.9 	"/>
	<polygon fill="#FFFFFF" points="165.3,261.4 145.7,261.3 143.5,252.3 166.8,252.4 	"/>
	<polygon fill="#FFFFFF" points="163.2,294.7 147.2,294.7 145.4,287.3 164.4,287.4 	"/>
	<polygon fill="#FFFFFF" points="163.1,316.7 147,316.7 145.3,309.3 164.3,309.4 	"/>
	<polygon fill="#FFFFFF" points="163,338.7 146.9,338.7 145.2,331.3 164.2,331.4 	"/>
	<polygon fill="#FFFFFF" points="162.8,360.7 146.8,360.7 145,353.3 164.1,353.4 	"/>
	<line fill="#FFFFFF" x1="137" y1="133.8" x2="168.4" y2="134"/>
	<line fill="none" stroke="#BCBEC0" stroke-width="2" stroke-miterlimit="10" x1="133.7" y1="42.4" x2="171.6" y2="42.5"/>
	<line fill="none" stroke="#BCBEC0" stroke-width="2" stroke-miterlimit="10" x1="133.6" y1="70.4" x2="173.1" y2="70.5"/>
	<line fill="none" stroke="#BCBEC0" stroke-width="2" stroke-miterlimit="10" x1="133.5" y1="100.4" x2="173.4" y2="100.5"/>
	<line fill="none" stroke="#BCBEC0" stroke-width="2" stroke-miterlimit="10" x1="133.3" y1="127.4" x2="174.2" y2="127.5"/>
	<line fill="none" stroke="#BCBEC0" stroke-width="2" stroke-miterlimit="10" x1="133.2" y1="150.4" x2="174.1" y2="150.5"/>
	<line fill="none" stroke="#BCBEC0" stroke-width="2" stroke-miterlimit="10" x1="132.1" y1="172.4" x2="175" y2="172.5"/>
	<line fill="none" stroke="#BCBEC0" stroke-width="2" stroke-miterlimit="10" x1="132" y1="191.4" x2="175.9" y2="191.5"/>
	<line fill="none" stroke="#BCBEC0" stroke-width="2" stroke-miterlimit="10" x1="131.9" y1="208.4" x2="175.9" y2="208.5"/>
	<line fill="none" stroke="#BCBEC0" stroke-width="2" stroke-miterlimit="10" x1="131.9" y1="222.4" x2="175.8" y2="222.5"/>
	<line fill="none" stroke="#BCBEC0" stroke-width="2" stroke-miterlimit="10" x1="130.8" y1="236.4" x2="176.7" y2="236.5"/>
	<line fill="none" stroke="#BCBEC0" stroke-width="2" stroke-miterlimit="10" x1="130.7" y1="250.4" x2="176.7" y2="250.5"/>
	<line fill="none" stroke="#BCBEC0" stroke-width="2" stroke-miterlimit="10" x1="130.7" y1="263.4" x2="176.6" y2="263.5"/>
	<line fill="none" stroke="#BCBEC0" stroke-width="2" stroke-miterlimit="10" x1="130.6" y1="274.4" x2="177.5" y2="274.5"/>
	<line fill="none" stroke="#BCBEC0" stroke-width="2" stroke-miterlimit="10" x1="130.6" y1="285.4" x2="177.5" y2="285.5"/>
	<line fill="none" stroke="#BCBEC0" stroke-width="2" stroke-miterlimit="10" x1="130.5" y1="296.5" x2="177.4" y2="296.6"/>
	<line fill="none" stroke="#BCBEC0" stroke-width="2" stroke-miterlimit="10" x1="130.5" y1="307.5" x2="178.4" y2="307.6"/>
	<line fill="none" stroke="#BCBEC0" stroke-width="2" stroke-miterlimit="10" x1="130.4" y1="318.5" x2="178.3" y2="318.6"/>
	<line fill="none" stroke="#BCBEC0" stroke-width="2" stroke-miterlimit="10" x1="130.4" y1="329.5" x2="178.3" y2="329.6"/>
	<line fill="none" stroke="#BCBEC0" stroke-width="2" stroke-miterlimit="10" x1="130.3" y1="340.5" x2="178.2" y2="340.6"/>
	<line fill="none" stroke="#BCBEC0" stroke-width="2" stroke-miterlimit="10" x1="130.3" y1="351.5" x2="178.2" y2="351.6"/>
	<line fill="none" stroke="#BCBEC0" stroke-width="2" stroke-miterlimit="10" x1="130.2" y1="362.5" x2="179.1" y2="362.6"/>
	<line fill="none" stroke="#BCBEC0" stroke-width="2" stroke-miterlimit="10" x1="130.1" y1="374.5" x2="179.1" y2="374.6"/>
	
		<rect x="134" y="7.5" transform="matrix(1 4.790507e-03 -4.790507e-03 1 4.467582e-02 -0.7324)" fill="#FFFFFF" width="37.8" height="2.8"/>
	
		<rect id="_x3C_Slice_x3E_" x="-51.5" y="90.1" transform="matrix(-4.790451e-03 1 -1 -4.790451e-03 363.803 53.0566)" fill="none" width="414" height="235"/>
</g>
</svg>
