<?xml version="1.0" encoding="utf-8"?>
<!-- Generator: Adobe Illustrator 18.1.1, SVG Export Plug-In . SVG Version: 6.00 Build 0)  -->
<svg version="1.1" id="Layer_1" xmlns="http://www.w3.org/2000/svg" xmlns:xlink="http://www.w3.org/1999/xlink" x="0px" y="0px"
	 viewBox="44 -1.5 524 790.6" enable-background="new 44 -1.5 524 790.6" xml:space="preserve">
<g id="Layer_1_1_">
	<g id="body">
		<g>
			<g>
				<g>
					<path stroke="#F9F6C0" stroke-miterlimit="10" d="M257.7,754.7c-4.6,0.2-9.6,0.7-14.7,0.7c-6.4,0.2-9.9,3-9.8,9.8
						c0.2,5.3,0,12.1,0.2,17.5c0,4.2-1.6,6.3-6.1,6.3c-28.9,0.5-58-0.3-87,0c-2.6,0-6.3-2.8-7.4-4.9c-22.6-50-9.9-97.8,33.7-131.1
						c25.2-19.2,53.9-28.2,85.2-29.7c4.6-0.2,7.5,0.7,7.4,6.4c-0.3,40.9-0.5,81.8-0.7,122.9C258.5,752.9,258.2,753.4,257.7,754.7z
						 M212.8,724c0.2-15.4-11.2-27.2-26.1-27.3c-15.5-0.2-27.8,11.4-28,26.6c-0.3,15.2,11.7,27.8,26.7,28
						C200.7,751.2,212.7,739.4,212.8,724z"/>
					<path stroke="#F9F6C0" stroke-miterlimit="10" d="M379.2,788.4c-0.2-4.3-0.2-20.3-0.3-24.6c-0.7-12.8-6.3-8.9-24.9-10.2
						c-1.1-22.2-2.1-44.6-3.2-67.1c0.8-0.2,0.7-0.2,1.3-0.3c2.6,6.1,4.6,12.1,7.7,18c19.6,38.7,77.2,42.5,98.3,4.9
						c1.6-2.8,3.3-5.4,5.4-7.9c9.1-11.4,19.3-10.1,23.3,4c3,10.5,4.9,22.1,4.2,32.9c-1.1,13.6-5.3,31.8-8.8,45
						c-0.5,2.1-4.3,4.5-6.7,4.6c-24.5,0.5-48.9,0.7-73.4,0.7C379.2,788.4,379.2,788.4,379.2,788.4z"/>
					<path fill="#FFFFFF" d="M212.8,724c-0.2,15.4-12.1,27.3-27.3,27c-15-0.2-27-12.8-26.7-28c0.3-15.2,12.4-26.7,28-26.6
						C201.7,696.8,213,708.6,212.8,724z"/>
				</g>
			</g>
		</g>
	</g>
	<g id="neck">
		<g>
			<g>
				<path fill="#3C2415" stroke="#F9F6C0" stroke-miterlimit="10" d="M333.8,752.6h-56.4c-6.7,0-12.1-5.4-11.9-12.1l4.6-596.2
					c0-6.5,5.4-11.9,11.9-11.9h36.4c6.5,0,11.9,5.3,11.9,11.9l15.4,596.2C346.1,747,340.7,752.6,333.8,752.6z"/>
			</g>
		</g>
		<polygon fill="#FFFFFF" points="324.5,274.5 280.9,274.5 275.9,254.7 327.7,254.7 		"/>
		<polygon fill="#FFFFFF" points="324.7,181.9 279.4,181.9 274.3,162.1 328.1,162.1 		"/>
		<polygon fill="#FFFFFF" points="323.1,360.4 280.8,360.4 275.9,339.6 326.3,339.6 		"/>
		<polygon fill="#FFFFFF" points="320.2,426.4 284.8,426.4 280.8,410.1 323,410.1 		"/>
		<polygon fill="#FFFFFF" points="318.8,478.8 287.5,478.8 283.9,464.4 321.2,464.4 		"/>
		<polygon fill="#FFFFFF" points="320.5,545.1 289.2,545.1 285.5,530.8 323,530.8 		"/>
		<polygon fill="#FFFFFF" points="318.9,598.3 293.4,598.3 290.4,586.7 320.9,586.7 		"/>
		<polygon fill="#FFFFFF" points="318.9,633.5 293.4,633.5 290.4,621.8 320.9,621.8 		"/>
		<polygon fill="#FFFFFF" points="318.9,668.7 293.4,668.7 290.4,657 320.9,657 		"/>
		<polygon fill="#FFFFFF" points="318.9,703.9 293.4,703.9 290.4,692.2 320.9,692.2 		"/>
		<line fill="none" x1="275.9" y1="341.4" x2="326" y2="341.4"/>
		<line fill="none" stroke="#BCBEC0" stroke-width="2" stroke-miterlimit="10" x1="269.9" y1="195.4" x2="330.6" y2="195.2"/>
		<line fill="none" stroke="#BCBEC0" stroke-width="2" stroke-miterlimit="10" x1="269.9" y1="240.2" x2="333" y2="239.9"/>
		<line fill="none" stroke="#BCBEC0" stroke-width="2" stroke-miterlimit="10" x1="269.9" y1="288.1" x2="333.8" y2="287.8"/>
		<line fill="none" stroke="#BCBEC0" stroke-width="2" stroke-miterlimit="10" x1="269.9" y1="331.3" x2="335.4" y2="331"/>
		<line fill="none" stroke="#BCBEC0" stroke-width="2" stroke-miterlimit="10" x1="269.9" y1="368.1" x2="335.4" y2="367.8"/>
		<line fill="none" stroke="#BCBEC0" stroke-width="2" stroke-miterlimit="10" x1="268.3" y1="403.2" x2="337" y2="402.9"/>
		<line fill="none" stroke="#BCBEC0" stroke-width="2" stroke-miterlimit="10" x1="268.3" y1="433.6" x2="338.6" y2="433.3"/>
		<line fill="none" stroke="#BCBEC0" stroke-width="2" stroke-miterlimit="10" x1="268.3" y1="460.8" x2="338.6" y2="460.4"/>
		<line fill="none" stroke="#BCBEC0" stroke-width="2" stroke-miterlimit="10" x1="268.3" y1="483.1" x2="338.6" y2="482.8"/>
		<line fill="none" stroke="#BCBEC0" stroke-width="2" stroke-miterlimit="10" x1="266.7" y1="505.5" x2="340.2" y2="505.2"/>
		<line fill="none" stroke="#BCBEC0" stroke-width="2" stroke-miterlimit="10" x1="266.7" y1="527.9" x2="340.2" y2="527.6"/>
		<line fill="none" stroke="#BCBEC0" stroke-width="2" stroke-miterlimit="10" x1="266.7" y1="548.6" x2="340.2" y2="548.3"/>
		<line fill="none" stroke="#BCBEC0" stroke-width="2" stroke-miterlimit="10" x1="266.7" y1="566.3" x2="341.8" y2="565.9"/>
		<line fill="none" stroke="#BCBEC0" stroke-width="2" stroke-miterlimit="10" x1="266.7" y1="583.8" x2="341.8" y2="583.5"/>
		<line fill="none" stroke="#BCBEC0" stroke-width="2" stroke-miterlimit="10" x1="266.7" y1="601.6" x2="341.8" y2="601.4"/>
		<line fill="none" stroke="#BCBEC0" stroke-width="2" stroke-miterlimit="10" x1="266.7" y1="619.2" x2="343.4" y2="619"/>
		<line fill="none" stroke="#BCBEC0" stroke-width="2" stroke-miterlimit="10" x1="266.7" y1="636.7" x2="343.4" y2="636.5"/>
		<line fill="none" stroke="#BCBEC0" stroke-width="2" stroke-miterlimit="10" x1="266.7" y1="654.3" x2="343.4" y2="654.2"/>
		<line fill="none" stroke="#BCBEC0" stroke-width="2" stroke-miterlimit="10" x1="266.7" y1="671.9" x2="343.4" y2="671.7"/>
		<line fill="none" stroke="#BCBEC0" stroke-width="2" stroke-miterlimit="10" x1="266.7" y1="689.5" x2="343.4" y2="689.3"/>
		<line fill="none" stroke="#BCBEC0" stroke-width="2" stroke-miterlimit="10" x1="266.7" y1="707" x2="345" y2="706.9"/>
		<line fill="none" stroke="#BCBEC0" stroke-width="2" stroke-miterlimit="10" x1="266.7" y1="726.3" x2="345" y2="726.1"/>
		<rect x="270.2" y="139.5" fill="#FFFFFF" width="60.4" height="4.5"/>
		<rect id="_x3C_Slice_x3E_" x="118.2" y="128.3" fill="none" width="375.6" height="661.7"/>
	</g>
</g>
<g id="Layer_4">
	<rect x="332.1" y="36.7" fill="#ADADAD" width="8.7" height="2.7"/>
	<path fill="#F9F6C0" d="M346.5,44.5h-4.8c-1.3,0-2.3-1.1-2.3-2.3v-7.9c0-1.3,1.1-2.3,2.3-2.3h4.8c1.3,0,2.3,1.1,2.3,2.3v7.9
		C348.9,43.4,347.9,44.5,346.5,44.5z"/>
	<rect x="331.2" y="62.6" fill="#ADADAD" width="8.7" height="2.7"/>
	<path fill="#F9F6C0" d="M345.7,70.3h-4.8c-1.3,0-2.3-1.1-2.3-2.3v-7.9c0-1.3,1.1-2.3,2.3-2.3h4.8c1.3,0,2.3,1.1,2.3,2.3V68
		C348.1,69.3,347,70.3,345.7,70.3z"/>
	<rect x="331.2" y="88.5" fill="#ADADAD" width="8.7" height="2.7"/>
	<path fill="#F9F6C0" d="M345.7,96.2h-4.8c-1.3,0-2.3-1.1-2.3-2.3v-7.9c0-1.3,1.1-2.3,2.3-2.3h4.8c1.3,0,2.3,1.1,2.3,2.3v7.9
		C348.1,95.2,347,96.2,345.7,96.2z"/>
	<rect x="260.9" y="36.7" fill="#ADADAD" width="8.7" height="2.7"/>
	<path fill="#F9F6C0" d="M255.1,44.5h4.8c1.3,0,2.3-1.1,2.3-2.3v-7.9c0-1.3-1.1-2.3-2.3-2.3h-4.8c-1.3,0-2.3,1.1-2.3,2.3v7.9
		C252.7,43.4,253.8,44.5,255.1,44.5z"/>
	<rect x="261.7" y="62.6" fill="#ADADAD" width="8.7" height="2.7"/>
	<path fill="#F9F6C0" d="M256,70.3h4.8c1.3,0,2.3-1.1,2.3-2.3v-7.9c0-1.3-1.1-2.3-2.3-2.3H256c-1.3,0-2.3,1.1-2.3,2.3V68
		C253.5,69.3,254.6,70.3,256,70.3z"/>
	<rect x="261.7" y="88.5" fill="#ADADAD" width="8.7" height="2.7"/>
	<path fill="#F9F6C0" d="M256,96.2h4.8c1.3,0,2.3-1.1,2.3-2.3v-7.9c0-1.3-1.1-2.3-2.3-2.3H256c-1.3,0-2.3,1.1-2.3,2.3v7.9
		C253.5,95.2,254.6,96.2,256,96.2z"/>
</g>
<g id="Layer_2">
	<path stroke="#F9F6C0" stroke-miterlimit="10" d="M259.1,10.9c-0.2-0.4,0.1-0.8,0.5-0.8c8.2-0.5,10.9,3.3,20.9-2.5
		c11.7-7,19.2-2.7,21.3-1.1c0.3,0.3,0.8,0.3,1.3,0c2-1.5,8.6-5.3,17.8,0c8.7,5,14.2,4.3,21.9,3.7c0.8-0.1,1.4,0.8,1.1,1.5
		c-4.5,9.2-12.7,51.7-8.3,96.6c0,0.2,0,0.4-0.1,0.6c-0.9,1.8-6.2,12.9-5.4,29.7c0,0.6-0.4,1.2-1.1,1.2h-57.1c-0.7,0-1.2-0.6-1.1-1.3
		c0.7-4,2.2-16.9-4.3-27.7c-0.3-0.6-0.5-1.2-0.5-1.8C266.2,100.5,270.6,39,259.1,10.9z"/>
</g>
<g id="Layer_3">
	<circle fill="#ADADAD" stroke="#000000" stroke-width="0.5" stroke-miterlimit="10" cx="279.9" cy="38.3" r="4.3"/>
	<circle fill="#ADADAD" stroke="#000000" stroke-width="0.5" stroke-miterlimit="10" cx="280.3" cy="37.9" r="2.1"/>
	<circle fill="#ADADAD" stroke="#000000" stroke-width="0.5" stroke-miterlimit="10" cx="279.9" cy="64.2" r="4.3"/>
	<circle fill="#ADADAD" stroke="#000000" stroke-width="0.5" stroke-miterlimit="10" cx="280.3" cy="63.8" r="2.1"/>
	<circle fill="#ADADAD" stroke="#000000" stroke-width="0.5" stroke-miterlimit="10" cx="279.9" cy="90.1" r="4.3"/>
	<circle fill="#ADADAD" stroke="#000000" stroke-width="0.5" stroke-miterlimit="10" cx="280.3" cy="89.7" r="2.1"/>
	<circle fill="#ADADAD" stroke="#000000" stroke-width="0.5" stroke-miterlimit="10" cx="323.4" cy="38.3" r="4.3"/>
	<circle fill="#ADADAD" stroke="#000000" stroke-width="0.5" stroke-miterlimit="10" cx="323.7" cy="37.9" r="2.1"/>
	<circle fill="#ADADAD" stroke="#000000" stroke-width="0.5" stroke-miterlimit="10" cx="323.4" cy="64.2" r="4.3"/>
	<circle fill="#ADADAD" stroke="#000000" stroke-width="0.5" stroke-miterlimit="10" cx="323.7" cy="63.8" r="2.1"/>
	<circle fill="#ADADAD" stroke="#000000" stroke-width="0.5" stroke-miterlimit="10" cx="323.4" cy="90.1" r="4.3"/>
	<circle fill="#ADADAD" stroke="#000000" stroke-width="0.5" stroke-miterlimit="10" cx="323.7" cy="89.7" r="2.1"/>
</g>
</svg>
