<svg xmlns="http://www.w3.org/2000/svg" viewBox="0 0 612 792" enable-background="new 0 0 612 792"><g><path d="M248.2 750.7c-5.5.2-11.5.8-17.6.8-7.7.2-11.9 3.6-11.7 11.7.2 6.3 0 14.5.2 21 0 5-1.9 7.5-7.3 7.5-34.6.6-69.4-.4-104.1 0-3.1 0-7.5-3.3-8.8-5.9-27.1-59.9-11.9-117.1 40.3-156.9 30.2-23 64.5-33.7 102-35.6 5.5-.2 9 .8 8.8 7.7-.4 49-.6 97.9-.8 147.1 0 .5-.4 1.1-1 2.6zM194.5 714c.2-18.4-13.4-32.5-31.2-32.7-18.6-.2-33.3 13.6-33.5 31.8-.4 18.2 14 33.3 31.9 33.5 18.2-.1 32.6-14.2 32.8-32.6zM393.6 791.1c-.2-5.2-.2-24.3-.4-29.5-.8-15.3-7.5-10.7-29.8-12.2-1.3-26.6-2.5-53.4-3.8-80.3 1-.2.8-.2 1.5-.4 3.1 7.3 5.5 14.5 9.2 21.6 23.5 46.3 92.4 50.9 117.7 5.9 1.9-3.3 4-6.5 6.5-9.4 10.9-13.6 23.1-12.1 27.9 4.8 3.6 12.6 5.9 26.4 5 39.4-1.3 16.3-6.3 38.1-10.5 53.9-.6 2.5-5.2 5.4-8 5.5-29.3.6-58.5.8-87.8.8"/><path fill="#fff" d="M194.5 714c-.2 18.4-14.5 32.7-32.7 32.3-18-.2-32.3-15.3-31.9-33.5.4-18.2 14.9-31.9 33.5-31.8 17.7.5 31.3 14.6 31.1 33z"/></g><g><path fill="#3C2415" d="M339.3 748.2h-67.5c-8 0-14.5-6.5-14.3-14.5L263 20.1c0-7.8 6.5-14.3 14.3-14.3h43.6c7.8 0 14.2 6.3 14.3 14.2l18.4 713.6c.4 7.9-6.1 14.6-14.3 14.6z"/><path fill="#fff" d="M328.2 176H276l-6-23.7h62zM328.4 65.1h-54.2l-6.1-23.7h64.3zM326.5 278.8h-50.7l-5.8-24.9h60.3zM323 357.8h-42.4l-4.8-19.5h50.5zM321.3 420.5h-37.5l-4.2-17.2h44.6zM323.4 499.9h-37.5l-4.4-17.2h44.8zM321.5 563.6h-30.6l-3.6-13.9h36.5zM321.5 605.7h-30.6l-3.6-14h36.5zM321.5 647.8h-30.6l-3.6-14h36.5zM321.5 689.9h-30.6l-3.6-14h36.5z"/><path fill="none" d="M270 256h59.9"/><path fill="none" stroke="#BCBEC0" stroke-width="2" stroke-miterlimit="10" d="M262.8 81.3l72.7-.3M262.8 134.9l75.5-.4M262.8 192.3l76.5-.4M262.8 244l78.4-.4M262.8 288l78.4-.4M260.9 330l82.2-.3M260.9 366.4l84.1-.4M260.9 398.9l84.1-.4M260.9 425.7l84.1-.4M258.9 452.5l88-.4M258.9 479.3l88-.4M258.9 504.1l88-.4M258.9 525.2l90-.4M258.9 546.2l90-.4M258.9 567.5l90-.2M258.9 588.5l91.9-.2M258.9 609.5l91.9-.2M258.9 630.6l91.9-.2M258.9 651.6l91.9-.2M258.9 672.7l91.9-.2M258.9 693.7l93.8-.2M258.9 716.7l93.8-.2"/><path fill="#fff" d="M263.1 14.4h72.3v5.4h-72.3z"/><path fill="none" d="M81.2 1h449.6v792H81.2z"/></g></svg>