<svg xmlns="http://www.w3.org/2000/svg" viewBox="0 0 308 414.6" enable-background="new 0 0 308 414.6"><g><path d="M124.4 392.3c-2.9.1-6 .3-9.2.4-4 .1-6.2 1.8-6.1 6.1.1 3.3 0 7.6 0 11 0 2.6-1 3.8-3.8 3.9-18.1.2-36.3-.3-54.4-.3-1.6 0-3.9-1.7-4.6-3.2-14-31.3-6-61.2 21.5-81.8 15.9-11.9 33.8-17.4 53.4-18.3 2.9-.1 4.7.4 4.6 4-.4 25.6-.6 51.2-.8 76.9-.1.2-.3.5-.6 1.3zm-28-19.3c.2-9.6-6.9-17-16.2-17.2-9.7-.2-17.4 7-17.6 16.5-.2 9.5 7.2 17.4 16.6 17.6 9.5.1 17.1-7.3 17.2-16.9zM200.3 413.8c-.1-2.7 0-12.8-.2-15.4-.3-8-3.9-5.6-15.5-6.5-.6-13.9-1.2-27.9-1.8-42 .5-.1.4-.1.8-.2 1.6 3.8 2.9 7.7 4.7 11.3 12.2 24.3 48.1 26.8 61.5 3.4 1-1.7 2.2-3.4 3.4-4.9 5.7-7 12.1-6.2 14.6 2.6 1.9 6.6 3 13.8 2.5 20.6-.7 8.5-3.4 19.9-5.6 28.2-.3 1.3-2.8 2.8-4.2 2.8-15.3.3-30.6.3-45.9.2"/><path fill="#fff" d="M96.4 373c-.2 9.6-7.7 17-17.2 16.8-9.4-.2-16.8-8-16.6-17.6.2-9.5 7.9-16.7 17.6-16.5 9.3.2 16.4 7.7 16.2 17.3zm-14.1-4.3h2.9c-2.9-3.8-5.9-4-9-1.9-3.5 2.3-5.7 5.4-3.6 9.7 1.8 3.8 5.1 5.4 9.1 4.2 3-.9 6.3-2.3 3.1-6.7-1.1-1.5-1.5-3.6-2.3-5.5l-.2.2z"/></g><g><path fill="#3C2415" d="M172 391.3l-35.3-.2c-4.2 0-7.6-3.5-7.5-7.6l4.7-373c.1-4.1 3.4-7.5 7.6-7.5l22.8.1c4.1 0 7.4 3.3 7.5 7.4l7.8 373.1c.1 4.2-3.3 7.7-7.6 7.7z"/><path fill="#fff" d="M167.6 92.1l-27.3-.1-3-12.4 32.5.1zM166.9 32.1l-27.3-.1-3-12.4 32.4.1zM167.4 145.8l-26.4-.1-3-13 31.5.2zM165.5 187.1l-22.2-.1-2.5-10.2 26.5.1zM164.4 219.9l-19.6-.1-2.1-9 23.3.1zM165.3 261.4l-19.6-.1-2.2-9 23.3.1zM163.2 294.7h-16l-1.8-7.4 19 .1zM163.1 316.7H147l-1.7-7.4 19 .1zM163 338.7h-16.1l-1.7-7.4 19 .1zM162.8 360.7h-16l-1.8-7.4 19.1.1zM137 133.8l31.4.2"/><path fill="none" stroke="#BCBEC0" stroke-width="2" stroke-miterlimit="10" d="M133.7 42.4l37.9.1M133.6 70.4l39.5.1M133.5 100.4l39.9.1M133.3 127.4l40.9.1M133.2 150.4l40.9.1M132.1 172.4l42.9.1M132 191.4l43.9.1M131.9 208.4l44 .1M131.9 222.4l43.9.1M130.8 236.4l45.9.1M130.7 250.4l46 .1M130.7 263.4l45.9.1M130.6 274.4l46.9.1M130.6 285.4l46.9.1M130.5 296.5l46.9.1M130.5 307.5l47.9.1M130.4 318.5l47.9.1M130.4 329.5l47.9.1M130.3 340.5l47.9.1M130.3 351.5l47.9.1M130.2 362.5l48.9.1M130.1 374.5l49 .1"/><path fill="#fff" d="M134.01 7.41l37.8.18-.015 2.8-37.8-.18z"/><path fill="none" d="M273.95 1.125l-1.984 414-235-1.126L38.95 0z"/></g></svg>