<svg xmlns="http://www.w3.org/2000/svg" viewBox="44 -1.5 524 790.6" enable-background="new 44 -1.5 524 790.6"><g><g><path stroke="#F9F6C0" stroke-miterlimit="10" d="M257.7 754.7c-4.6.2-9.6.7-14.7.7-6.4.2-9.9 3-9.8 9.8.2 5.3 0 12.1.2 17.5 0 4.2-1.6 6.3-6.1 6.3-28.9.5-58-.3-87 0-2.6 0-6.3-2.8-7.4-4.9-22.6-50-9.9-97.8 33.7-131.1 25.2-19.2 53.9-28.2 85.2-29.7 4.6-.2 7.5.7 7.4 6.4-.3 40.9-.5 81.8-.7 122.9 0 .3-.3.8-.8 2.1zM212.8 724c.2-15.4-11.2-27.2-26.1-27.3-15.5-.2-27.8 11.4-28 26.6-.3 15.2 11.7 27.8 26.7 28 15.3-.1 27.3-11.9 27.4-27.3zM379.2 788.4c-.2-4.3-.2-20.3-.3-24.6-.7-12.8-6.3-8.9-24.9-10.2-1.1-22.2-2.1-44.6-3.2-67.1.8-.2.7-.2 1.3-.3 2.6 6.1 4.6 12.1 7.7 18 19.6 38.7 77.2 42.5 98.3 4.9 1.6-2.8 3.3-5.4 5.4-7.9 9.1-11.4 19.3-10.1 23.3 4 3 10.5 4.9 22.1 4.2 32.9-1.1 13.6-5.3 31.8-8.8 45-.5 2.1-4.3 4.5-6.7 4.6-24.5.5-48.9.7-73.4.7h-22.9z"/><path fill="#fff" d="M212.8 724c-.2 15.4-12.1 27.3-27.3 27-15-.2-27-12.8-26.7-28 .3-15.2 12.4-26.7 28-26.6 14.9.4 26.2 12.2 26 27.6z"/></g><g><path fill="#3C2415" stroke="#F9F6C0" stroke-miterlimit="10" d="M333.8 752.6h-56.4c-6.7 0-12.1-5.4-11.9-12.1l4.6-596.2c0-6.5 5.4-11.9 11.9-11.9h36.4c6.5 0 11.9 5.3 11.9 11.9l15.4 596.2c.4 6.5-5 12.1-11.9 12.1z"/><path fill="#fff" d="M324.5 274.5h-43.6l-5-19.8h51.8zM324.7 181.9h-45.3l-5.1-19.8h53.8zM323.1 360.4h-42.3l-4.9-20.8h50.4zM320.2 426.4h-35.4l-4-16.3H323zM318.8 478.8h-31.3l-3.6-14.4h37.3zM320.5 545.1h-31.3l-3.7-14.3H323zM318.9 598.3h-25.5l-3-11.6h30.5zM318.9 633.5h-25.5l-3-11.7h30.5zM318.9 668.7h-25.5l-3-11.7h30.5zM318.9 703.9h-25.5l-3-11.7h30.5z"/><path fill="none" d="M275.9 341.4H326"/><path fill="none" stroke="#BCBEC0" stroke-width="2" stroke-miterlimit="10" d="M269.9 195.4l60.7-.2M269.9 240.2l63.1-.3M269.9 288.1l63.9-.3M269.9 331.3l65.5-.3M269.9 368.1l65.5-.3M268.3 403.2l68.7-.3M268.3 433.6l70.3-.3M268.3 460.8l70.3-.4M268.3 483.1l70.3-.3M266.7 505.5l73.5-.3M266.7 527.9l73.5-.3M266.7 548.6l73.5-.3M266.7 566.3l75.1-.4M266.7 583.8l75.1-.3M266.7 601.6l75.1-.2M266.7 619.2l76.7-.2M266.7 636.7l76.7-.2M266.7 654.3l76.7-.1M266.7 671.9l76.7-.2M266.7 689.5l76.7-.2M266.7 707l78.3-.1M266.7 726.3l78.3-.2"/><path fill="#fff" d="M270.2 139.5h60.4v4.5h-60.4z"/><path fill="none" d="M118.2 128.3h375.6V790H118.2z"/></g></g><g><path fill="#ADADAD" d="M332.1 36.7h8.7v2.7h-8.7z"/><path fill="#F9F6C0" d="M346.5 44.5h-4.8c-1.3 0-2.3-1.1-2.3-2.3v-7.9c0-1.3 1.1-2.3 2.3-2.3h4.8c1.3 0 2.3 1.1 2.3 2.3v7.9c.1 1.2-.9 2.3-2.3 2.3z"/><path fill="#ADADAD" d="M331.2 62.6h8.7v2.7h-8.7z"/><path fill="#F9F6C0" d="M345.7 70.3h-4.8c-1.3 0-2.3-1.1-2.3-2.3v-7.9c0-1.3 1.1-2.3 2.3-2.3h4.8c1.3 0 2.3 1.1 2.3 2.3V68c.1 1.3-1 2.3-2.3 2.3z"/><path fill="#ADADAD" d="M331.2 88.5h8.7v2.7h-8.7z"/><path fill="#F9F6C0" d="M345.7 96.2h-4.8c-1.3 0-2.3-1.1-2.3-2.3V86c0-1.3 1.1-2.3 2.3-2.3h4.8c1.3 0 2.3 1.1 2.3 2.3v7.9c.1 1.3-1 2.3-2.3 2.3z"/><path fill="#ADADAD" d="M260.9 36.7h8.7v2.7h-8.7z"/><path fill="#F9F6C0" d="M255.1 44.5h4.8c1.3 0 2.3-1.1 2.3-2.3v-7.9c0-1.3-1.1-2.3-2.3-2.3h-4.8c-1.3 0-2.3 1.1-2.3 2.3v7.9c-.1 1.2 1 2.3 2.3 2.3z"/><path fill="#ADADAD" d="M261.7 62.6h8.7v2.7h-8.7z"/><path fill="#F9F6C0" d="M256 70.3h4.8c1.3 0 2.3-1.1 2.3-2.3v-7.9c0-1.3-1.1-2.3-2.3-2.3H256c-1.3 0-2.3 1.1-2.3 2.3V68c-.2 1.3.9 2.3 2.3 2.3z"/><path fill="#ADADAD" d="M261.7 88.5h8.7v2.7h-8.7z"/><path fill="#F9F6C0" d="M256 96.2h4.8c1.3 0 2.3-1.1 2.3-2.3V86c0-1.3-1.1-2.3-2.3-2.3H256c-1.3 0-2.3 1.1-2.3 2.3v7.9c-.2 1.3.9 2.3 2.3 2.3z"/></g><path stroke="#F9F6C0" stroke-miterlimit="10" d="M259.1 10.9c-.2-.4.1-.8.5-.8 8.2-.5 10.9 3.3 20.9-2.5 11.7-7 19.2-2.7 21.3-1.1.3.3.8.3 1.3 0 2-1.5 8.6-5.3 17.8 0 8.7 5 14.2 4.3 21.9 3.7.8-.1 1.4.8 1.1 1.5-4.5 9.2-12.7 51.7-8.3 96.6 0 .2 0 .4-.1.6-.9 1.8-6.2 12.9-5.4 29.7 0 .6-.4 1.2-1.1 1.2h-57.1c-.7 0-1.2-.6-1.1-1.3.7-4 2.2-16.9-4.3-27.7-.3-.6-.5-1.2-.5-1.8.2-8.5 4.6-70-6.9-98.1z"/><g fill="#ADADAD" stroke="#000" stroke-width=".5" stroke-miterlimit="10"><circle cx="279.9" cy="38.3" r="4.3"/><circle cx="280.3" cy="37.9" r="2.1"/><circle cx="279.9" cy="64.2" r="4.3"/><circle cx="280.3" cy="63.8" r="2.1"/><circle cx="279.9" cy="90.1" r="4.3"/><circle cx="280.3" cy="89.7" r="2.1"/><circle cx="323.4" cy="38.3" r="4.3"/><circle cx="323.7" cy="37.9" r="2.1"/><circle cx="323.4" cy="64.2" r="4.3"/><circle cx="323.7" cy="63.8" r="2.1"/><circle cx="323.4" cy="90.1" r="4.3"/><circle cx="323.7" cy="89.7" r="2.1"/></g></svg>