<svg xmlns="http://www.w3.org/2000/svg" viewBox="0 -157 612 949" enable-background="new 0 -157 612 949"><g><g><path stroke="#F9F6C0" stroke-miterlimit="10" d="M248.4 748.7c-5.5.2-11.5.8-17.6.8-7.7.2-11.8 3.6-11.7 11.7.2 6.3 0 14.5.2 20.9 0 5-1.9 7.5-7.3 7.5-34.6.6-69.4-.4-104.1 0-3.1 0-7.5-3.4-8.9-5.9-27-59.6-11.8-116.8 40.3-156.7 30.2-23 64.5-33.8 102-35.5 5.5-.2 9 .8 8.9 7.7-.4 49-.6 97.9-.8 147.1-.1.3-.4.9-1 2.4zM194.6 712c.2-18.4-13.4-32.6-31.2-32.7-18.6-.2-33.3 13.6-33.5 31.8-.4 18.2 14 33.3 32 33.5 18.3 0 32.6-14.2 32.7-32.6zM393.8 789.1c-.2-5.1-.2-24.3-.4-29.4-.8-15.3-7.5-10.7-29.8-12.2-1.3-26.6-2.5-53.4-3.8-80.3 1-.2.8-.2 1.6-.4 3.1 7.3 5.5 14.5 9.2 21.5 23.5 46.3 92.4 50.9 117.7 5.9 1.9-3.4 3.9-6.5 6.5-9.5 10.9-13.6 23.1-12.1 27.9 4.8 3.6 12.6 5.9 26.5 5 39.4-1.3 16.3-6.3 38.1-10.5 53.9-.6 2.5-5.1 5.4-8 5.5-29.3.6-58.5.8-87.9.8h-27.5z"/><path fill="#fff" d="M194.6 712c-.2 18.4-14.5 32.7-32.7 32.3-18-.2-32.3-15.3-32-33.5.4-18.2 14.8-32 33.5-31.8 18 .4 31.5 14.6 31.2 33z"/></g><g><path fill="#3C2415" stroke="#F9F6C0" stroke-miterlimit="10" d="M339.5 746.2H272c-8 0-14.5-6.5-14.2-14.5l5.5-713.6c0-7.8 6.5-14.2 14.2-14.2H321c7.8 0 14.2 6.3 14.2 14.2l18.4 713.6c.6 7.8-5.9 14.5-14.1 14.5z"/><path fill="#fff" d="M328.3 174h-52.1l-6-23.7h62zM328.6 63.2h-54.2l-6.1-23.7h64.4zM326.7 276.8H276l-5.8-24.9h60.3zM323.2 355.8h-42.4l-4.8-19.5h50.5zM321.5 418.5h-37.4l-4.4-17.2h44.7zM323.6 497.9h-37.5l-4.4-17.1h44.8zM321.6 561.6h-30.5l-3.6-13.9H324zM321.6 603.7h-30.5l-3.6-14H324zM321.6 645.8h-30.5l-3.6-14H324zM321.6 687.9h-30.5l-3.6-14H324z"/><path fill="none" d="M270.2 254.1h59.9"/><path fill="none" stroke="#BCBEC0" stroke-width="2" stroke-miterlimit="10" d="M263.4 79.3l73-.2M263 132.9l74.6-.3M262.2 190.3l77.3-.4M261.8 242l78.8-.4M261.8 286l79.6-.3M261.4 328l81.3-.3M261.1 364.4l82.9-.3M261.1 397l83.6-.5M261 423.7l84.2-.4M260.4 450.5l85.5-.4M260.4 477.3l86-.4M260.4 477.3l84.8-.4M260.4 502.1l86.7-.4M259.8 523.2l88.1-.4M259.8 544.2l89.2-.4M259.8 565.5l89.2-.2M259.4 586.6l90.4-.3M259.2 607.5l90.6-.2M259.2 628.6l91.8-.1M259.2 649.6l91.8-.2M258.6 670.7l93.3-.2M258.6 691.7l93.6-.2M258.6 714.8l94.3-.3"/><path fill="#fff" d="M263.4 12.4h72.3v5.4h-72.3z"/><path fill="none" d="M81.4-1H531v792H81.4z"/></g></g><g><path fill="#ADADAD" d="M337.4-110.6h10.4v3.2h-10.4z"/><path fill="#F9F6C0" d="M354.7-101.3H349c-1.6 0-2.8-1.3-2.8-2.8v-9.5c0-1.6 1.3-2.8 2.8-2.8h5.7c1.6 0 2.8 1.3 2.8 2.8v9.5c0 1.5-1.1 2.8-2.8 2.8z"/><path fill="#ADADAD" d="M336.4-79.6h10.4v3.2h-10.4z"/><path fill="#F9F6C0" d="M353.7-70.4H348c-1.6 0-2.8-1.3-2.8-2.8v-9.5c0-1.6 1.3-2.8 2.8-2.8h5.7c1.6 0 2.8 1.3 2.8 2.8v9.5c.1 1.6-1.2 2.8-2.8 2.8z"/><path fill="#ADADAD" d="M336.4-48.6h10.4v3.2h-10.4z"/><path fill="#F9F6C0" d="M353.7-39.4H348c-1.6 0-2.8-1.3-2.8-2.8v-9.5c0-1.6 1.3-2.8 2.8-2.8h5.7c1.6 0 2.8 1.3 2.8 2.8v9.5c.1 1.6-1.2 2.8-2.8 2.8z"/><path fill="#ADADAD" d="M252.2-110.6h10.4v3.2h-10.4z"/><path fill="#F9F6C0" d="M245.3-101.3h5.7c1.6 0 2.8-1.3 2.8-2.8v-9.5c0-1.6-1.3-2.8-2.8-2.8h-5.7c-1.6 0-2.8 1.3-2.8 2.8v9.5c-.1 1.5 1.2 2.8 2.8 2.8z"/><path fill="#ADADAD" d="M253.2-79.6h10.4v3.2h-10.4z"/><path fill="#F9F6C0" d="M246.4-70.4h5.7c1.6 0 2.8-1.3 2.8-2.8v-9.5c0-1.6-1.3-2.8-2.8-2.8h-5.7c-1.6 0-2.8 1.3-2.8 2.8v9.5c-.2 1.6 1.1 2.8 2.8 2.8z"/><path fill="#ADADAD" d="M253.2-48.6h10.4v3.2h-10.4z"/><path fill="#F9F6C0" d="M246.4-39.4h5.7c1.6 0 2.8-1.3 2.8-2.8v-9.5c0-1.6-1.3-2.8-2.8-2.8h-5.7c-1.6 0-2.8 1.3-2.8 2.8v9.5c-.2 1.6 1.1 2.8 2.8 2.8z"/></g><path stroke="#F9F6C0" stroke-miterlimit="10" d="M250.1-141.5c-.2-.5.1-1 .6-1 9.8-.6 13 3.9 25-3 14-8.4 23-3.2 25.5-1.3.4.4 1 .4 1.6 0 2.4-1.8 10.3-6.3 21.3 0 10.4 6 17 5.1 26.2 4.4 1-.1 1.7 1 1.3 1.8-5.4 11-15.2 61.9-9.9 115.6 0 .2 0 .5-.1.7-1.1 2.2-7.4 15.4-6.5 35.5 0 .7-.5 1.4-1.3 1.4h-68.3c-.8 0-1.4-.7-1.3-1.6.8-4.8 2.6-20.2-5.1-33.2-.4-.7-.6-1.4-.6-2.2.1-9.9 5.3-83.5-8.4-117.1z"/><g fill="#ADADAD" stroke="#000" stroke-width=".5" stroke-miterlimit="10"><circle cx="275" cy="-108.7" r="5.1"/><circle cx="275.4" cy="-109.2" r="2.5"/><circle cx="275" cy="-77.7" r="5.1"/><circle cx="275.4" cy="-78.2" r="2.5"/><circle cx="275" cy="-46.7" r="5.1"/><circle cx="275.4" cy="-47.2" r="2.5"/><circle cx="327" cy="-108.7" r="5.1"/><circle cx="327.4" cy="-109.2" r="2.5"/><circle cx="327" cy="-77.7" r="5.1"/><circle cx="327.4" cy="-78.2" r="2.5"/><circle cx="327" cy="-46.7" r="5.1"/><circle cx="327.4" cy="-47.2" r="2.5"/></g></svg>