<svg xmlns="http://www.w3.org/2000/svg" viewBox="0 0 792 459" enable-background="new 0 0 792 459"><filter id="b"><feGaussianBlur stdDeviation="7"/></filter><pattern x="90" y="-90" width="72" height="72" patternUnits="userSpaceOnUse" id="c" viewBox="71.5 -72 72 72" overflow="visible"><g fill="none"><path d="M71.5-72h72V0h-72z"/><g stroke="#000" stroke-width="2" stroke-dasharray="2,1"><path d="M72-1.5h72M72-4.5h72M72-7.5h72M72-10.5h72M72-13.5h72M72-16.5h72M72-19.5h72M72-22.5h72M72-25.5h72M72-28.5h72M72-31.5h72M72-34.5h72M72-37.5h72M72-40.5h72M72-43.5h72M72-46.5h72M72-49.5h72M72-52.5h72M72-55.5h72M72-58.5h72M72-61.5h72M72-64.5h72M72-67.5h72M72-70.5h72"/></g><g stroke="#000" stroke-width="2" stroke-dasharray="2,1"><path d="M0-1.5h72M0-4.5h72M0-7.5h72M0-10.5h72M0-13.5h72M0-16.5h72M0-19.5h72M0-22.5h72M0-25.5h72M0-28.5h72M0-31.5h72M0-34.5h72M0-37.5h72M0-40.5h72M0-43.5h72M0-46.5h72M0-49.5h72M0-52.5h72M0-55.5h72M0-58.5h72M0-61.5h72M0-64.5h72M0-67.5h72M0-70.5h72"/></g></g></pattern><pattern x="90" y="-90" width="72" height="74.8" patternUnits="userSpaceOnUse" id="a" viewBox="72.2 -74.8 72 74.8" overflow="visible"><g fill="none"><path d="M72.2-74.8h72V0h-72z"/><g stroke="#000" stroke-width=".3" stroke-linecap="square"><path d="M144.2-.8h72M144.2-2.5h72M144.2-4.2h72M144.2-6h72M144.2-7.7h72M144.2-9.3h72M144.2-11h72M144.2-12.8h72M144.2-14.5h72M144.2-16.2h72M144.2-17.8h72M144.2-19.5h72M144.2-21.2h72M144.2-22.9h72M144.2-24.6h72M144.2-26.3h72M144.2-28h72M144.2-29.7h72M144.2-31.4h72M144.2-33.1h72M144.2-34.8h72M144.2-36.5h72M144.2-38.2h72M144.2-39.9h72M144.2-41.6h72M144.2-43.3h72M144.2-45h72M144.2-46.7h72M144.2-48.4h72M144.2-50.1h72M144.2-51.8h72M144.2-53.5h72M144.2-55.2h72M144.2-56.9h72M144.2-58.6h72M144.2-60.3h72M144.2-62h72M144.2-63.7h72M144.2-65.4h72M144.2-67.1h72M144.2-68.8h72M144.2-70.5h72M144.2-72.2h72M144.2-73.9h72"/></g><g stroke="#000" stroke-width=".3" stroke-linecap="square"><path d="M72.2-.8h72M72.2-2.5h72M72.2-4.2h72M72.2-6h72M72.2-7.7h72M72.2-9.3h72M72.2-11h72M72.2-12.8h72M72.2-14.5h72M72.2-16.2h72M72.2-17.8h72M72.2-19.5h72M72.2-21.2h72M72.2-22.9h72M72.2-24.6h72M72.2-26.3h72M72.2-28h72M72.2-29.7h72M72.2-31.4h72M72.2-33.1h72M72.2-34.8h72M72.2-36.5h72M72.2-38.2h72M72.2-39.9h72M72.2-41.6h72M72.2-43.3h72M72.2-45h72M72.2-46.7h72M72.2-48.4h72M72.2-50.1h72M72.2-51.8h72M72.2-53.5h72M72.2-55.2h72M72.2-56.9h72M72.2-58.6h72M72.2-60.3h72M72.2-62h72M72.2-63.7h72M72.2-65.4h72M72.2-67.1h72M72.2-68.8h72M72.2-70.5h72M72.2-72.2h72M72.2-73.9h72"/></g><g stroke="#000" stroke-width=".3" stroke-linecap="square"><path d="M.2-.8h72M.2-2.5h72M.2-4.2h72M.2-6h72M.2-7.7h72M.2-9.3h72M.2-11h72M.2-12.8h72M.2-14.5h72M.2-16.2h72M.2-17.8h72M.2-19.5h72M.2-21.2h72M.2-22.9h72M.2-24.6h72M.2-26.3h72M.2-28h72M.2-29.7h72M.2-31.4h72M.2-33.1h72M.2-34.8h72M.2-36.5h72M.2-38.2h72M.2-39.9h72M.2-41.6h72M.2-43.3h72M.2-45h72M.2-46.7h72M.2-48.4h72M.2-50.1h72M.2-51.8h72M.2-53.5h72M.2-55.2h72M.2-56.9h72M.2-58.6h72M.2-60.3h72M.2-62h72M.2-63.7h72M.2-65.4h72M.2-67.1h72M.2-68.8h72M.2-70.5h72M.2-72.2h72M.2-73.9h72"/></g></g></pattern><g><path fill="#603913" d="M0 294.1h792v169H0z"/><path fill="url(#a)" d="M0 294.1h792v169H0z"/></g><g fill="#3C2415"><path d="M0 284.3h792v9.8H0zM-44.3 153.7h.7v2h-.7z"/></g><g filter="url(#b)" fill="#F1F2F2"><path opacity=".24" d="M442.7 369H270L91.3-124.3zM350.3 369H523l178.7-493.3z"/><ellipse cx="436.5" cy="369.7" rx="86.2" ry="20"/><ellipse cx="356.5" cy="369.7" rx="86.2" ry="20"/></g><g><path fill="#414042" d="M84.5 322.3H18.3c-3.1 0-5.7-2.6-5.7-5.7v-82.8c0-3.1 2.5-5.7 5.7-5.7h66.2c3.1 0 5.7 2.6 5.7 5.7v82.8c0 3.2-2.5 5.7-5.7 5.7z"/><path fill="#8B5E3C" d="M81.5 318.6H21.3c-3.1 0-5.7-2.5-5.7-5.7v-75.4c0-3.1 2.6-5.7 5.7-5.7h60.2c3.1 0 5.7 2.6 5.7 5.7V313c0 3.1-2.5 5.6-5.7 5.6z"/><path fill="url(#c)" d="M81.5 318.6H21.3c-3.1 0-5.7-2.5-5.7-5.7v-75.4c0-3.1 2.6-5.7 5.7-5.7h60.2c3.1 0 5.7 2.6 5.7 5.7V313c0 3.1-2.5 5.6-5.7 5.6z"/><path fill="#414042" d="M168.3 322.3h-66.2c-3.1 0-5.7-2.6-5.7-5.7v-82.8c0-3.1 2.6-5.7 5.7-5.7h66.2c3.1 0 5.7 2.6 5.7 5.7v82.8c0 3.2-2.6 5.7-5.7 5.7z"/><path fill="#8B5E3C" d="M165.3 318.6h-60.2c-3.1 0-5.7-2.5-5.7-5.7v-75.4c0-3.1 2.6-5.7 5.7-5.7h60.2c3.1 0 5.7 2.6 5.7 5.7V313c0 3.1-2.6 5.6-5.7 5.6z"/><path fill="url(#c)" d="M165.3 318.6h-60.2c-3.1 0-5.7-2.5-5.7-5.7v-75.4c0-3.1 2.6-5.7 5.7-5.7h60.2c3.1 0 5.7 2.6 5.7 5.7V313c0 3.1-2.6 5.6-5.7 5.6z"/><path fill="#414042" d="M773.9 322.3h-66.2c-3.1 0-5.7-2.6-5.7-5.7v-82.8c0-3.1 2.5-5.7 5.7-5.7h66.2c3.1 0 5.7 2.6 5.7 5.7v82.8c0 3.2-2.6 5.7-5.7 5.7z"/><path fill="#8B5E3C" d="M770.9 318.6h-60.2c-3.1 0-5.7-2.5-5.7-5.7v-75.4c0-3.1 2.5-5.7 5.7-5.7h60.2c3.1 0 5.7 2.6 5.7 5.7V313c0 3.1-2.6 5.6-5.7 5.6z"/><path fill="url(#c)" d="M770.9 318.6h-60.2c-3.1 0-5.7-2.5-5.7-5.7v-75.4c0-3.1 2.5-5.7 5.7-5.7h60.2c3.1 0 5.7 2.6 5.7 5.7V313c0 3.1-2.6 5.6-5.7 5.6z"/><path fill="#414042" d="M691.5 322.3h-66.2c-3.1 0-5.7-2.6-5.7-5.7v-82.8c0-3.1 2.5-5.7 5.7-5.7h66.2c3.1 0 5.7 2.6 5.7 5.7v82.8c0 3.2-2.5 5.7-5.7 5.7z"/><path fill="#8B5E3C" d="M688.5 318.6h-60.2c-3.1 0-5.7-2.5-5.7-5.7v-75.4c0-3.1 2.5-5.7 5.7-5.7h60.2c3.1 0 5.7 2.6 5.7 5.7V313c0 3.1-2.5 5.6-5.7 5.6z"/><path fill="url(#c)" d="M688.5 318.6h-60.2c-3.1 0-5.7-2.5-5.7-5.7v-75.4c0-3.1 2.5-5.7 5.7-5.7h60.2c3.1 0 5.7 2.6 5.7 5.7V313c0 3.1-2.5 5.6-5.7 5.6z"/></g><g><path fill="#414042" d="M80.8 226.9H22.6c-2.2 0-3.9-1.8-3.9-3.9v-15.2c0-2.2 1.8-3.9 3.9-3.9h58.2c2.2 0 3.9 1.8 3.9 3.9V223c0 2.2-1.8 3.9-3.9 3.9z"/><path fill="#754C29" d="M81.4 219.3H22.1c-.6 0-1-.5-1-1v-11.7c0-.6.5-1 1-1h59.3c.6 0 1 .5 1 1v11.7c.1.5-.4 1-1 1z"/><path fill="url(#c)" d="M81.4 219.3H22.1c-.6 0-1-.5-1-1v-11.7c0-.6.5-1 1-1h59.3c.6 0 1 .5 1 1v11.7c.1.5-.4 1-1 1z"/><path fill="#939598" d="M81.2 224.1H22.3c-.7 0-1.2-.6-1.2-1.2v-1.2c0-.7.6-1.2 1.2-1.2h58.9c.7 0 1.2.6 1.2 1.2v1.2c.1.7-.5 1.2-1.2 1.2z"/><path fill="#414042" d="M24.7 226.2h2.5v2h-2.5zM75.2 226.2h2.5v2h-2.5z"/><circle fill="#BCBEC0" stroke="#000" stroke-width=".25" cx="25.6" cy="222.4" r="1"/><circle fill="#BCBEC0" stroke="#000" stroke-width=".25" cx="29.1" cy="222.4" r="1"/><circle fill="#BCBEC0" stroke="#000" stroke-width=".25" cx="32.6" cy="222.4" r="1"/><circle fill="#BCBEC0" stroke="#000" stroke-width=".25" cx="36" cy="222.4" r="1"/><circle fill="#BCBEC0" stroke="#000" stroke-width=".25" cx="39.5" cy="222.4" r="1"/><circle fill="#BCBEC0" stroke="#000" stroke-width=".25" cx="43" cy="222.4" r="1"/><circle fill="#BCBEC0" stroke="#000" stroke-width=".25" cx="46.4" cy="222.4" r="1"/><circle fill="#BCBEC0" stroke="#000" stroke-width=".25" cx="49.9" cy="222.4" r="1"/><circle fill="#BCBEC0" stroke="#000" stroke-width=".25" cx="53.3" cy="222.4" r="1"/><circle fill="#BCBEC0" stroke="#000" stroke-width=".25" cx="56.8" cy="222.4" r="1"/><circle fill="#BCBEC0" stroke="#000" stroke-width=".25" cx="60.3" cy="222.4" r="1"/><circle fill="#BCBEC0" stroke="#000" stroke-width=".25" cx="63.7" cy="222.4" r="1"/><circle fill="#BCBEC0" stroke="#000" stroke-width=".25" cx="67.2" cy="222.4" r="1"/><circle fill="#BCBEC0" stroke="#000" stroke-width=".25" cx="70.6" cy="222.4" r="1"/><circle fill="#ED1C24" cx="80.2" cy="222.2" r=".8"/><path fill="#414042" d="M164.5 226.9h-58.2c-2.2 0-3.9-1.8-3.9-3.9v-15.2c0-2.2 1.8-3.9 3.9-3.9h58.2c2.2 0 3.9 1.8 3.9 3.9V223c0 2.2-1.7 3.9-3.9 3.9z"/><path fill="#754C29" d="M165.2 219.3h-59.3c-.6 0-1-.5-1-1v-11.7c0-.6.5-1 1-1h59.3c.6 0 1 .5 1 1v11.7c0 .5-.4 1-1 1z"/><path fill="url(#c)" d="M165.2 219.3h-59.3c-.6 0-1-.5-1-1v-11.7c0-.6.5-1 1-1h59.3c.6 0 1 .5 1 1v11.7c0 .5-.4 1-1 1z"/><path fill="#939598" d="M165 224.1h-58.9c-.7 0-1.2-.6-1.2-1.2v-1.2c0-.7.6-1.2 1.2-1.2H165c.7 0 1.2.6 1.2 1.2v1.2c0 .7-.5 1.2-1.2 1.2z"/><path fill="#414042" d="M108.4 226.2h2.5v2h-2.5zM159 226.2h2.5v2H159z"/><circle fill="#BCBEC0" stroke="#000" stroke-width=".25" cx="109.4" cy="222.4" r="1"/><circle fill="#BCBEC0" stroke="#000" stroke-width=".25" cx="112.9" cy="222.4" r="1"/><circle fill="#BCBEC0" stroke="#000" stroke-width=".25" cx="116.3" cy="222.4" r="1"/><circle fill="#BCBEC0" stroke="#000" stroke-width=".25" cx="119.8" cy="222.4" r="1"/><circle fill="#BCBEC0" stroke="#000" stroke-width=".25" cx="123.3" cy="222.4" r="1"/><circle fill="#BCBEC0" stroke="#000" stroke-width=".25" cx="126.7" cy="222.4" r="1"/><circle fill="#BCBEC0" stroke="#000" stroke-width=".25" cx="130.2" cy="222.4" r="1"/><circle fill="#BCBEC0" stroke="#000" stroke-width=".25" cx="133.6" cy="222.4" r="1"/><circle fill="#BCBEC0" stroke="#000" stroke-width=".25" cx="137.1" cy="222.4" r="1"/><circle fill="#BCBEC0" stroke="#000" stroke-width=".25" cx="140.6" cy="222.4" r="1"/><circle fill="#BCBEC0" stroke="#000" stroke-width=".25" cx="144" cy="222.4" r="1"/><circle fill="#BCBEC0" stroke="#000" stroke-width=".25" cx="147.5" cy="222.4" r="1"/><circle fill="#BCBEC0" stroke="#000" stroke-width=".25" cx="151" cy="222.4" r="1"/><circle fill="#BCBEC0" stroke="#000" stroke-width=".25" cx="154.4" cy="222.4" r="1"/><circle fill="#ED1C24" cx="164" cy="222.2" r=".8"/><path fill="#414042" d="M770.1 226.9H712c-2.2 0-3.9-1.8-3.9-3.9v-15.2c0-2.2 1.8-3.9 3.9-3.9h58.2c2.2 0 3.9 1.8 3.9 3.9V223c0 2.2-1.8 3.9-4 3.9z"/><path fill="#754C29" d="M770.8 219.3h-59.3c-.6 0-1-.5-1-1v-11.7c0-.6.5-1 1-1h59.3c.6 0 1 .5 1 1v11.7c.1.5-.4 1-1 1z"/><path fill="url(#c)" d="M770.8 219.3h-59.3c-.6 0-1-.5-1-1v-11.7c0-.6.5-1 1-1h59.3c.6 0 1 .5 1 1v11.7c.1.5-.4 1-1 1z"/><path fill="#939598" d="M770.6 224.1h-58.9c-.7 0-1.2-.6-1.2-1.2v-1.2c0-.7.6-1.2 1.2-1.2h58.9c.7 0 1.2.6 1.2 1.2v1.2c.1.7-.5 1.2-1.2 1.2z"/><path fill="#414042" d="M714.1 226.2h2.5v2h-2.5zM764.6 226.2h2.5v2h-2.5z"/><circle fill="#BCBEC0" stroke="#000" stroke-width=".25" cx="715" cy="222.4" r="1"/><circle fill="#BCBEC0" stroke="#000" stroke-width=".25" cx="718.5" cy="222.4" r="1"/><circle fill="#BCBEC0" stroke="#000" stroke-width=".25" cx="722" cy="222.4" r="1"/><circle fill="#BCBEC0" stroke="#000" stroke-width=".25" cx="725.4" cy="222.4" r="1"/><circle fill="#BCBEC0" stroke="#000" stroke-width=".25" cx="728.9" cy="222.4" r="1"/><circle fill="#BCBEC0" stroke="#000" stroke-width=".25" cx="732.3" cy="222.4" r="1"/><circle fill="#BCBEC0" stroke="#000" stroke-width=".25" cx="735.8" cy="222.4" r="1"/><circle fill="#BCBEC0" stroke="#000" stroke-width=".25" cx="739.3" cy="222.4" r="1"/><circle fill="#BCBEC0" stroke="#000" stroke-width=".25" cx="742.7" cy="222.4" r="1"/><circle fill="#BCBEC0" stroke="#000" stroke-width=".25" cx="746.2" cy="222.4" r="1"/><circle fill="#BCBEC0" stroke="#000" stroke-width=".25" cx="749.6" cy="222.4" r="1"/><circle fill="#BCBEC0" stroke="#000" stroke-width=".25" cx="753.1" cy="222.4" r="1"/><circle fill="#BCBEC0" stroke="#000" stroke-width=".25" cx="756.6" cy="222.4" r="1"/><circle fill="#BCBEC0" stroke="#000" stroke-width=".25" cx="760" cy="222.4" r="1"/><circle fill="#ED1C24" cx="769.6" cy="222.2" r=".8"/><path fill="#414042" d="M687.8 226.9h-58.2c-2.2 0-3.9-1.8-3.9-3.9v-15.2c0-2.2 1.8-3.9 3.9-3.9h58.2c2.2 0 3.9 1.8 3.9 3.9V223c0 2.2-1.8 3.9-3.9 3.9z"/><path fill="#754C29" d="M688.4 219.3h-59.3c-.6 0-1-.5-1-1v-11.7c0-.6.5-1 1-1h59.3c.6 0 1 .5 1 1v11.7c.1.5-.4 1-1 1z"/><path fill="url(#c)" d="M688.4 219.3h-59.3c-.6 0-1-.5-1-1v-11.7c0-.6.5-1 1-1h59.3c.6 0 1 .5 1 1v11.7c.1.5-.4 1-1 1z"/><path fill="#939598" d="M688.2 224.1h-58.9c-.7 0-1.2-.6-1.2-1.2v-1.2c0-.7.6-1.2 1.2-1.2h58.9c.7 0 1.2.6 1.2 1.2v1.2c.1.7-.5 1.2-1.2 1.2z"/><path fill="#414042" d="M631.7 226.2h2.5v2h-2.5zM682.2 226.2h2.5v2h-2.5z"/><circle fill="#BCBEC0" stroke="#000" stroke-width=".25" cx="632.6" cy="222.4" r="1"/><circle fill="#BCBEC0" stroke="#000" stroke-width=".25" cx="636.1" cy="222.4" r="1"/><circle fill="#BCBEC0" stroke="#000" stroke-width=".25" cx="639.6" cy="222.4" r="1"/><circle fill="#BCBEC0" stroke="#000" stroke-width=".25" cx="643" cy="222.4" r="1"/><circle fill="#BCBEC0" stroke="#000" stroke-width=".25" cx="646.5" cy="222.4" r="1"/><circle fill="#BCBEC0" stroke="#000" stroke-width=".25" cx="650" cy="222.4" r="1"/><circle fill="#BCBEC0" stroke="#000" stroke-width=".25" cx="653.4" cy="222.4" r="1"/><circle fill="#BCBEC0" stroke="#000" stroke-width=".25" cx="656.9" cy="222.4" r="1"/><circle fill="#BCBEC0" stroke="#000" stroke-width=".25" cx="660.3" cy="222.4" r="1"/><circle fill="#BCBEC0" stroke="#000" stroke-width=".25" cx="663.8" cy="222.4" r="1"/><circle fill="#BCBEC0" stroke="#000" stroke-width=".25" cx="667.3" cy="222.4" r="1"/><circle fill="#BCBEC0" stroke="#000" stroke-width=".25" cx="670.7" cy="222.4" r="1"/><circle fill="#BCBEC0" stroke="#000" stroke-width=".25" cx="674.2" cy="222.4" r="1"/><circle fill="#BCBEC0" stroke="#000" stroke-width=".25" cx="677.6" cy="222.4" r="1"/><circle fill="#ED1C24" cx="687.2" cy="222.2" r=".8"/></g></svg>