<?xml version="1.0" encoding="utf-8"?>
<!-- Generator: Adobe Illustrator 18.1.0, SVG Export Plug-In . SVG Version: 6.00 Build 0)  -->
<svg version="1.1" xmlns="http://www.w3.org/2000/svg" xmlns:xlink="http://www.w3.org/1999/xlink" x="0px" y="0px"
	 viewBox="0 0 612 792" enable-background="new 0 0 612 792" xml:space="preserve">
<g id="body">
	<g>
		<path fill="#C49A6C" d="M244,332.1c0.3-17.8,0.6-36.6,0.8-54.4c0.1-8.3,0.2-16.6,0.4-24.9c0.1-9,0.3-18.1,0.4-27.1
			c0.1-6.5,0.1-13,0.2-19.5c0.1-7.9,0.2-15.8,0.3-23.7c0.1-4.9,0.2-9.8,0.3-14.6c0-2.1,0-4.3,0-6.4c0-1.4-0.4-2.2-1.7-2.8
			c-2.2-1-4.2-2.4-6.1-3.9c-1-0.8-1.7-1.7-2.1-2.9c-0.8-2.4-1.1-4.8-0.4-7.3c0.5-2,1.2-4,1.7-6c0.3-0.9,0.5-1.8,0.7-2.7
			c0.2-0.7,0.1-1.3-0.6-1.8c-0.3-0.2-0.5-0.4-0.9-0.7c-0.3,0.4-0.6,0.6-0.8,0.9c-0.4,0.6-0.8,1.2-1.2,1.9c-0.8,1.1-0.9,1.2-2.1,0.8
			c-1.2-0.4-2.4-0.8-3.6-1.2c-0.8-0.3-1.2-0.8-1.3-1.6c-0.4-2-0.6-4-0.1-6c0.6-2.4,1.8-4.5,3.8-5.9c0.3-0.2,0.8-0.4,1.1-0.3
			c1.8,0.4,3.6,0.8,5.3,1.5c0.4,1.7-0.1,3.3,0.3,4.9c0.9-0.2,1.7-0.4,2.7-0.6c1.1-3.3,2.4-6.7,3.2-10.2c-0.6-0.5-1.2-0.9-1.9-1.4
			c-0.3,0.3-0.6,0.5-0.8,0.8c-0.7,1.1-1.3,2.1-2,3.2c-0.4,0-0.8,0-1.1-0.1c-1.3-0.5-2.6-1-4-1.4c-0.8-0.3-1.2-0.8-1.4-1.6
			c-0.2-1.3-0.3-2.5-0.4-3.8c0-3.3,1.4-5.9,3.8-8.1c0.5-0.5,1.1-0.6,1.8-0.4c1.6,0.5,3.2,0.9,4.8,1.3c0.6,1.7-0.1,3.4,0.4,4.9
			c0.7,0.4,0.9-0.4,1.3-0.4c0.4,0,0.8,0.1,1.2,0.1c0.6-1.2,2.9-8.1,3.4-10.4c-0.3-0.2-0.6-0.5-0.9-0.7c-0.3-0.2-0.6-0.5-1-0.7
			c-1.4,1-1.6,2.8-2.9,3.9c-0.3,0-0.6,0.1-0.9,0c-1.3-0.4-2.7-0.9-4-1.3c-0.9-0.3-1.3-0.9-1.5-1.8c-0.4-2-0.6-4.1-0.1-6
			c0.7-2.6,2.1-4.9,4.4-6.4c2,0.5,4,0.8,5.9,1.7c0,1.7,0.1,3.2,0.1,4.8c0.3,0,0.6,0.2,0.7,0.1c0.6-0.5,1.3-0.7,2.1-0.2
			c1.4-3.6,2.3-7,3.3-10.5c-0.7-0.5-1.2-0.9-1.8-1.4c-1.4,1-1.8,2.8-3,3.9c-1.5-0.1-4.3-1-5.9-1.9c-0.8-2.2-0.8-4.5-0.6-6.9
			c0.1-1.4,0.9-2.5,1.6-3.6c0.6-0.9,1.4-1.7,2.2-2.6c0.4-0.4,0.9-0.6,1.5-0.4c1.7,0.5,3.3,1,5,1.4c0.7,1.7-0.1,3.4,0.4,4.9
			c0.6,0.5,0.8-0.2,1.2-0.3c0.4-0.1,0.9,0,1.4,0c1.4-3.3,2.2-6.8,3.3-10.3c-0.7-0.5-1.3-0.9-1.9-1.3c-1.4,1.1-1.8,2.9-3.2,4.1
			c-1.6-0.5-3.3-1.1-4.9-1.6c-0.6-0.2-0.9-0.6-1-1.1c-0.6-2.2-0.7-4.4-0.3-6.6c0.3-1.7,1.2-3.2,2.4-4.6c2-2.2,1.8-2,4.3-1.3
			c1.2,0.3,2.3,0.6,3.5,0.9c0.7,1.7-0.2,3.5,0.5,5.2c0.5-0.2,0.9-0.5,1.3-0.6c0.4-0.1,0.8,0,1.3,0c0.9-1.6,1.2-3.4,1.8-5
			c0.6-1.7,1-3.4,1.5-5.2c-0.7-0.5-1.3-0.9-2-1.4c-0.5,0.6-0.9,1.2-1.4,1.8c-0.3,0.5-0.6,1-1,1.5c-0.5,0.7-0.8,0.8-1.5,0.6
			c-1.4-0.5-2.8-0.9-4.2-1.4c-0.6-0.2-0.9-0.6-1-1.1c-0.6-2.2-0.7-4.4-0.3-6.6c0.5-2.3,1.9-4.3,3.6-5.9c0.4-0.4,0.9-0.6,1.5-0.4
			c1.5,0.4,3,0.7,4.5,1.1c0.7,0.2,0.9,0.6,0.9,1.3c0,1.1-0.1,2.3-0.1,3.4c0,0.7,0.5,0.9,1,0.4c0.6-0.6,1.3-0.1,2-0.5
			c0.2-0.4,0.4-0.8,0.6-1.3c2.7-5.9,7.2-9.5,13.5-10.9c4.4-0.9,8.6-0.4,12.5,1.7c3.2,1.7,5.9,4.1,7.8,7.3c2.4,4.1,3.1,8.4,2.5,12.9
			c-0.2,1.3-0.4,2.5-0.6,3.8c-1,4.7-3.3,8.5-7.2,11.4c-1.7,1.2-3.5,2.2-5.3,3.2c-0.7,0.4-1.5,1-2.1,1.5c-0.7,0.7-1,1.5-0.9,2.5
			c0.6,5.6,1.3,11.2,2.6,16.6c1.6,6.6,3.2,13.1,4.8,19.7c1.4,6.1,2.1,12.2,2.5,18.5c0.1,1.1-0.2,2.1-0.3,3.2c-0.1,0.6-0.4,1-0.9,1.2
			c-0.6,0.3-1.3,0.7-1.9,1.1c-3,1.6-5.8,3.6-8.3,5.9c-0.8,0.7-1.6,1.4-2.4,2.1c-1,0.9-1.8,2-2.3,3.2c-1.4,2.9-2.4,5.9-2.8,9.2
			c-0.3,3.1-0.6,6.3-0.4,9.4c0.1,1.2-0.1,2.4-0.1,3.6c0.2,14.1,0.4,28.1,0.5,42.2c0.1,7.6,0.1,15.1,0.2,22.7
			c0.1,10.2,0.3,20.3,0.4,30.5c0.1,6.6,0.1,13.2,0.2,19.9c0.1,7.6,0.2,16.1,0.3,23.7c0.1,8.2,0.2,15.3,0.3,23.5"/>
		<path fill="#2B3990" d="M281,330.2c0.1,5,0.2,10,0.3,15c0.2,19,0.5,38,0.7,57c0.1,8.6,0.2,17.3,0.3,25.9c0.1,8.5,0.2,17,0.3,25.5
			c0.1,7.9,0.2,15.8,0.3,23.7c0.1,6.6,0.2,13.2,0.2,19.9c0,2.2,0.9,3.7,2.8,4.7c2.6,1.3,5.4,2.4,8.2,3.2c4.1,1.2,8.3,1.5,12.5,1.2
			c5.9-0.4,11.4-2.3,16.2-5.8c3.5-2.6,6.1-5.9,8-9.9c1.3-2.9,2.1-5.9,2.7-9c0.7-3.4,1.4-6.8,2.1-10.2c0.3-1.7,0.9-3.4,1.9-4.8
			c2.1-3.1,5-4.7,8.8-4.9c2.5-0.1,4.7,0.6,6.9,1.8c3.1,1.7,5.4,4.3,7.1,7.4c3,5.3,4.6,11.1,5.4,17.1c0.9,6.7,0.6,13.4-0.5,20
			c-1.2,7.4-3.3,14.5-6,21.4c-2.1,5.4-4.3,10.8-6.8,16.1c-1.7,3.6-2.8,7.4-3.6,11.2c-1.1,4.7-1.4,9.5-1.1,14.3
			c0.4,4.9,1.2,9.7,3,14.3c2,5.3,4.5,10.3,6.9,15.4c2,4,3.8,8.1,5.9,12.1c2.2,4.3,4.2,8.7,6.1,13.1c3.5,8.1,6.2,16.4,8.6,24.8
			c1.7,5.9,3,11.8,3.8,17.8c1,7.5,1.2,14.9,0.8,22.4c-0.4,6-1.7,11.8-3.6,17.4c-1.8,5.3-4.3,10.2-7.4,14.9
			c-2.5,3.7-5.3,7.2-8.5,10.4c-3.9,3.9-8.3,7.2-13,10c-2.7,1.6-5.6,2.9-8.5,4.1c-5.4,2.3-11.1,4-16.8,5.3c-8.5,2-17.1,3.1-25.8,3.1
			c-10.2,0.1-20.5,0.2-30.7,0.2c-0.6,0-1.2,0-1.8,0c-0.4,0.5-0.7,1-1.1,1.5c0.6,1,1.3,2.1,1.9,3.1c0.5,0.9,0.4,1.5-0.5,2
			c-0.5,0.3-1.1,0.5-1.6,0.7c-0.7,0.3-1.4,0.5-2.1,0.7c-0.8,0-1.6,0-2.4,0c-0.6-0.2-1.1-0.4-1.7-0.6c-0.6-0.2-1.3-0.4-1.9-0.7
			c-1.1-0.6-1.2-1.3-0.6-2.3c0.6-1,1.2-1.9,1.8-2.9c-0.4-0.6-0.7-1.2-1.1-1.8c-2.8-0.1-5.6-0.3-8.4-0.4c-3.2-0.2-6.4-0.3-9.6-0.6
			c-3.5-0.3-6.9-0.8-10.4-1.1c-4.9-0.5-9.8-1.2-14.7-2.1c-7-1.2-13.8-3.1-20.4-5.7c-6.7-2.7-13.2-5.9-19.2-10
			c-2.6-1.8-5.2-3.5-7.7-5.5c-5.8-4.6-10.9-9.9-14.9-16.2c-3.8-6-6.6-12.4-7.9-19.4c-0.4-2.4-0.7-4.8-0.9-7.2
			c-0.3-2.8-0.4-5.6-0.6-8.4c-0.1-1.3,0.1-2.5,0.1-3.8c0.1-1.2,0.2-2.4,0.3-3.6c0.2-4.3,0.7-8.7,1.4-13c0.7-3.8,1.6-7.6,2.5-11.4
			c0.9-3.7,1.9-7.4,3.2-11c0.9-2.3,1.5-4.7,2.4-7c2.4-6.4,5-12.7,7.8-18.9c0.8-1.9,1.6-3.8,2.4-5.7c2.1-5,4.2-10,6.3-15
			c1.2-2.8,2.4-5.6,3.6-8.5c1.8-4.4,3.2-8.9,4.1-13.6c1.1-5.9,1.5-11.9,1-18c-0.4-6-1.6-11.9-3.4-17.7c-1.8-5.9-3.8-11.7-5.6-17.6
			c-1-3.1-1.9-6.3-2.9-9.4c-2.7-8.8-4.9-17.8-6.8-26.8c-0.8-3.9-1.3-7.9-1.5-11.9c-0.1-2.8-0.3-5.6-0.2-8.4
			c0.2-6.7,0.9-13.3,2.6-19.8c1.1-4.3,2.8-8.4,5.2-12.1c1.3-2.1,2.8-4.1,4.6-5.8c3-2.9,6.4-5,10.7-5.5c0.9-0.1,1.5-0.4,1.9-1.2
			c0.3-0.5,0.6-1,1-1.6c0.6,0.2,1.2,0.4,1.8,0.6c0.2-0.2,0.3-0.4,0.5-0.5c0-0.2,0-0.4-0.1-0.4c-0.8-0.6-1-1.3-1-2.3
			c0.1-0.8-0.1-1.6,0.1-2.3c0.6-0.5,1.1-0.3,1.6-0.1c2.6,1.3,5.1,2.7,7.4,4.4c0.3,0.2,0.5,0.5,0.7,0.7c0.1,0.1,0,0.3,0.1,0.5
			c-0.9,0.9-2.1,1.3-3.2,1.8c-0.3,0.1-0.8-0.2-1.1-0.2c-0.2,0-0.5,0.2-0.6,0.4c-0.1,0.2,0,0.5,0.1,0.7c0.3,0.3,0.7,0.6,1.1,0.9
			c-0.2,0.6-0.4,1.2-0.7,1.8c0.2,0.3,0.4,0.8,0.6,1.1c1,1.6,1.5,3.3,1.6,5.1c0.4,5.6,0.8,11.2,1.2,16.8c0.3,4.6,1.4,9.1,3.6,13.3
			c4.1,7.9,10.2,13.6,18.7,16.6c4.8,1.7,9.8,2.1,14.9,1.4c3.6-0.5,6.6-2.4,8.8-5.4c0.5-0.7,1-1.4,1.4-2.2c0.8-1.6,1.3-3.2,1.3-5
			c0-4.8,0.1-9.5,0.2-14.3c0.1-4.1,0.1-8.2,0.2-12.2c0.2-10.6,0.3-21.1,0.5-31.7c0.1-6.3,0.2-12.6,0.3-18.9
			c0.2-17.2,0.5-33.4,0.7-50.6"/>
	</g>
</g>
<g id="neck">
	<path fill="#603913" d="M282.9,503.4c0,3-2.3,5.4-5.3,5.4h0c-9.7,1.3-19.6,1.3-29.4,0.1l-0.9-0.1c-3,0-5.4-2.5-5.3-5.5l4.2-338
		c0-2.9,2.4-5.3,5.4-5.3h22.1c2.9,0,5.3,2.4,5.4,5.3L282.9,503.4z"/>
</g>
<g id="pickguard">
	<g>
		<path fill="#E6E7E8" d="M356.2,469.2c0.8,2.4,1.7,4.7,2.4,7.1c0.4,1.2,0.5,2.5,0.8,3.8c0.8,4,0.7,8.1,0.6,12.2
			c0,1.2-0.3,2.4-0.5,3.7c-0.1,0.8-0.2,1.7-0.4,2.5c-0.5,2.4-0.9,4.7-1.4,7.1c-0.5,2.1-1.1,4.3-1.7,6.4c-0.4,1.5-1,3-1.5,4.4
			c-0.6,1.7-1.2,3.4-1.9,5c-0.8,2-1.7,4-2.5,6.1c-1.2,2.9-2.4,5.8-3.6,8.8c-1,2.5-2,4.9-2.8,7.4c-0.8,2.7-1.6,5.4-2.2,8.1
			c-0.5,2.5-0.7,5.1-1,7.6c-0.2,2.2-0.4,4.4-0.3,6.6c0.1,2.4,0.4,4.8,0.8,7.2c0.3,2.1,0.7,4.3,1.2,6.4c0.6,2.5,1.3,5,2.3,7.4
			c1.3,3.4,2.8,6.8,4.3,10.2c2.5,5.4,5.1,10.8,7.6,16.1c1.3,2.8,2.7,5.6,3.9,8.5c1.6,3.5,3.1,7,4.6,10.6c1.6,3.8,3.1,7.7,4.6,11.6
			c1,2.6,1.9,5.1,2.8,7.7c0.8,2.5,1.5,5,2.2,7.5c0.6,2.5,1.1,5,1.7,7.5c0.6,2.4,0.6,4.8,0.6,7.3c0,4.1-2.8,7.9-7,9.1
			c-2.5,0.7-4.7,0.3-6.8-0.7c-2.3-1.1-4.4-2.4-6.6-3.7c-0.4-0.2-0.6-0.7-0.9-1c-1-0.9-2.1-1.9-3.2-2.8c-0.8-0.7-1.6-1.3-2.4-2
			c-2-1.6-3.9-3.3-5.8-4.9c-1.4-1.2-2.8-2.5-4.3-3.6c-2.9-2.2-5.9-4.5-8.9-6.6c-3.6-2.5-7.8-4-12-5.3c-1.6-0.5-3.2-0.7-4.9-1
			c-1.9-0.3-3.7-0.6-5.6-0.9c-1-0.1-2-0.3-3.1-0.3c-3.9-0.1-7.8-0.2-11.7-0.3c-1.4,0-1.5-0.1-1.5-1.5c0-1.8,0-3.5,0-5.3
			c0-1.6-0.6-2.9-2.1-3.6c-0.4-0.2-0.9-0.3-1.3-0.3c-14.1,0-28.2,0-42.2,0c-2.7,0-5.4,0-8.1,0c-2.5,0-4,1.4-4,3.9c0,1.9,0,3.8,0,5.7
			c0,0.5-0.1,0.8-0.7,0.8c-1.6,0-3.3,0.1-4.9-0.1c-2.6-0.3-5.1-1-7.4-2.3c-2.4-1.3-4.6-2.9-6.3-5c-1.2-1.4-2.1-3-3.1-4.5
			c-1.3-2.1-2.3-4.4-2.9-6.8c-0.5-1.7-0.9-3.4-1.2-5.1c-0.3-1.9-0.6-3.9-0.8-5.8c0-0.2-0.1-0.5-0.1-0.8c0-2.7-0.1-5.4,0-8
			c0.1-1.8,0.3-3.7,0.6-5.5c0.2-1.3,0.4-2.7,0.6-4c0.4-1.9,0.8-3.9,1.3-5.8c0.7-2.5,1.5-5.1,2.4-7.6c1.1-3.1,2.2-6.2,3.4-9.2
			c1.4-3.7,3-7.2,4.3-10.9c1.3-3.6,2.4-7.4,3.5-11.1c0.8-2.8,1.4-5.7,2-8.5c0.4-2.2,0.7-4.4,1-6.6c0.3-2.2,0.4-4.4,0.6-6.6
			c0.6-4.5,0.3-9.1,0.2-13.6c0-2.5-0.5-5-0.8-7.5c-0.2-1.7-0.4-3.4-0.7-5.1c-0.2-1.1-0.4-2.3-0.7-3.4c-0.5-2.1-1-4.2-1.4-6.3
			c-0.5-2.1-1-4.2-1.4-6.3c-0.3-1.6-0.6-3.2-0.7-4.8c-0.1-2.3,1-4.1,3-5.2c0.7-0.4,1.8-0.3,2.7-0.4c2.3-0.2,4.3,0.5,6.4,1.4
			c2,0.9,4.1,1.8,6.2,2.6c1,0.4,1.2,0.5,1.2,1.6c0,5.5,0,10.9,0,16.4c0,2,2,4.2,4,4.5c1.5,0.2,3.1,0.6,4.6,0.8
			c0.9,0.2,1.8,0.3,2.8,0.3c3,0.1,6.1,0.2,9.2,0.3c1.4,0,2.7,0.1,4.1,0c2.2-0.1,4.3-0.3,6.5-0.6c1.8-0.2,3.7-0.4,5.5-0.7
			c1.4-0.2,2.8-0.4,4-1.3c0.8-0.7,1.4-1.4,1.7-2.4c0.2-0.8,0.6-1,1.3-0.6c3.2,1.4,6.5,2.9,9.8,4.2c2.4,0.9,4.8,1.7,7.3,2.2
			c3.6,0.8,7.2,0.9,10.8,0.6c3.3-0.3,6.6-1,9.8-2.5c4.5-2.1,8.5-4.8,12.2-8.2c2.9-2.8,5.6-5.8,7.6-9.3c1.2-2.1,2.3-4.4,3.2-6.6
			c1-2.7,1.8-5.5,2.6-8.3c0.5-1.8,0.7-3.7,1-5.5c0.2-1,0.4-2,0.6-2.9C351.6,465.6,354.8,466.7,356.2,469.2z M263.5,628.1
			C263.5,628.1,263.5,628.1,263.5,628.1c6.5,0,13,0,19.5,0c0.3,0,0.7,0,1-0.1c2.2-0.4,3.6-1.9,4.8-3.6c0.4-0.6,0.6-1.5,0.7-2.3
			c0.1-5.4,0-10.8,0-16.3c0-1.3-0.5-2.5-1.3-3.5c-1.6-2-3.7-2.9-6.2-2.9c-11.7,0-23.4,0-35.1,0c-1.9,0-3.8,0.1-5.6,0.6
			c-2.4,0.6-4.7,3.3-4.7,5.8c0,4.7,0,9.4,0,14c0,0.8,0.2,1.6,0.3,2.5c0.4,3.2,4.1,5.7,7,5.7C250.5,628.1,257,628.1,263.5,628.1z
			 M256.6,521.7C256.6,521.7,256.6,521.7,256.6,521.7c-4.4,0-8.9,0-13.3,0c-2.3,0-4.3,0.6-5.9,2.4c-1,1.2-1.8,2.4-1.7,4.1
			c0.1,0.6,0.2,1.2,0.3,1.9c0.6,3.3,2.9,5.3,6.5,5.3c10.4-0.1,20.8,0.3,31.2-0.3c3.2-0.2,6.3,0,9.5,0c1.4,0,2.6-0.5,3.6-1.5
			c1.8-1.7,2.5-3.8,2.1-6.3c-0.6-3.6-3.1-5.8-6.6-5.8c-4,0-7.9-0.1-11.9,0.2C265.8,522,261.2,521.7,256.6,521.7z M262.6,581
			C262.6,581,262.6,581,262.6,581c6.8,0,13.5,0,20.3,0c1,0,2-0.2,2.9-0.6c2.9-1.2,4.5-5.3,3.4-8.2c-1.1-2.7-3.9-4.6-6.7-4.6
			c-12.7,0.1-25.5,0-38.2,0c-1,0-2,0.2-2.9,0.4c-0.6,0.1-1.2,0.3-1.7,0.7c-2.4,1.8-3.7,4.1-2.9,7.2c0.7,2.9,3.2,5.1,6.2,5.1
			C249.4,580.9,256,581,262.6,581z M339.5,640.4c0-2.6-2.1-4.7-4.7-4.6c-2.6,0-4.6,2.1-4.6,4.6c0,2.6,2,4.7,4.6,4.7
			C337.4,645.1,339.5,643.1,339.5,640.4z M365.6,663.1c0-2.6-2.1-4.6-4.7-4.6c-2.6,0-4.7,2.1-4.7,4.7c0,2.6,2.1,4.6,4.6,4.6
			C363.6,667.8,365.6,665.7,365.6,663.1z M304.7,620.1c-2.6,0-4.6,2-4.6,4.6c0,2.6,2.1,4.7,4.7,4.7c2.6,0,4.6-2.1,4.6-4.6
			C309.3,622.2,307.3,620.1,304.7,620.1z"/>
	</g>
</g>
<g id="pickups">
	<path fill="#FFFFFF" d="M282.7,534.8h-40.3c-3.4,0-6.3-2.8-6.3-6.3l0,0c0-3.4,2.8-6.3,6.3-6.3h40.3c3.4,0,6.3,2.8,6.3,6.3l0,0
		C288.9,531.9,286.1,534.8,282.7,534.8z"/>
	<path fill="#FFFFFF" d="M282.7,580.8h-40.3c-3.4,0-6.3-2.8-6.3-6.3l0,0c0-3.4,2.8-6.3,6.3-6.3h40.3c3.4,0,6.3,2.8,6.3,6.3l0,0
		C288.9,577.9,286.1,580.8,282.7,580.8z"/>
	<path fill="#FFFFFF" d="M282.7,628.1h-40.3c-3.4,0-6.3-2.8-6.3-6.3v-16.3c0-3.4,2.8-6.3,6.3-6.3h40.3c3.4,0,6.3,2.8,6.3,6.3v16.3
		C288.9,625.2,286.1,628.1,282.7,628.1z"/>
	<circle fill="#939598" cx="246.7" cy="528.8" r="1.8"/>
	<circle fill="#939598" cx="253" cy="528.8" r="1.8"/>
	<circle fill="#939598" cx="259.3" cy="528.8" r="1.8"/>
	<circle fill="#939598" cx="265.5" cy="528.8" r="1.8"/>
	<circle fill="#939598" cx="271.8" cy="528.8" r="1.8"/>
	<circle fill="#939598" cx="278.1" cy="528.8" r="1.8"/>
	<circle fill="#939598" cx="246.7" cy="574.8" r="1.8"/>
	<circle fill="#939598" cx="253" cy="574.8" r="1.8"/>
	<circle fill="#939598" cx="259.3" cy="574.8" r="1.8"/>
	<circle fill="#939598" cx="265.5" cy="574.8" r="1.8"/>
	<circle fill="#939598" cx="271.8" cy="574.8" r="1.8"/>
	<circle fill="#939598" cx="278.1" cy="574.8" r="1.8"/>
	<circle fill="#939598" cx="246.7" cy="607.8" r="1.8"/>
	<circle fill="#939598" cx="253" cy="607.8" r="1.8"/>
	<circle fill="#939598" cx="259.3" cy="607.8" r="1.8"/>
	<circle fill="#939598" cx="265.5" cy="607.8" r="1.8"/>
	<circle fill="#939598" cx="271.8" cy="607.8" r="1.8"/>
	<circle fill="#939598" cx="278.1" cy="607.8" r="1.8"/>
	<circle fill="#939598" cx="246.7" cy="618.8" r="1.8"/>
	<circle fill="#939598" cx="253" cy="618.8" r="1.8"/>
	<circle fill="#939598" cx="259.3" cy="618.8" r="1.8"/>
	<circle fill="#939598" cx="265.5" cy="618.8" r="1.8"/>
	<circle fill="#939598" cx="271.8" cy="618.8" r="1.8"/>
	<circle fill="#939598" cx="278.1" cy="618.8" r="1.8"/>
</g>
<g id="accents">
	<path fill="#FFFFFF" d="M278.2,162.6h-31c-0.3,0-0.6-0.3-0.6-0.6v-1.5c0-0.3,0.3-0.6,0.6-0.6h31c0.3,0,0.6,0.3,0.6,0.6v1.5
		C278.8,162.3,278.5,162.6,278.2,162.6z"/>
	<ellipse fill="#9B8579" cx="304.5" cy="624.7" rx="4.8" ry="4.7"/>
	<rect x="304.5" y="620.4" width="0.3" height="1.2"/>
	
		<ellipse transform="matrix(0.5489 0.8359 -0.8359 0.5489 686.4456 9.4493)" fill="#9B8579" cx="334.5" cy="640.7" rx="4.8" ry="4.7"/>
	<rect x="337.5" y="638.2" transform="matrix(0.5489 0.8359 -0.8359 0.5489 686.275 5.9185)" width="0.3" height="1.2"/>
	
		<ellipse transform="matrix(0.8796 -0.4756 0.4756 0.8796 -271.8164 251.2168)" fill="#9B8579" cx="360.5" cy="662.7" rx="4.8" ry="4.7"/>
	<rect x="358.7" y="658.8" transform="matrix(0.8796 -0.4756 0.4756 0.8796 -270.4266 250.0326)" width="0.3" height="1.2"/>
</g>
</svg>
