<svg xmlns="http://www.w3.org/2000/svg" viewBox="0 0 612 792" enable-background="new 0 0 612 792"><g><path fill="#C49A6C" d="M244 332.1c.3-17.8.6-36.6.8-54.4.1-8.3.2-16.6.4-24.9.1-9 .3-18.1.4-27.1.1-6.5.1-13 .2-19.5l.3-23.7c.1-4.9.2-9.8.3-14.6v-6.4c0-1.4-.4-2.2-1.7-2.8-2.2-1-4.2-2.4-6.1-3.9-1-.8-1.7-1.7-2.1-2.9-.8-2.4-1.1-4.8-.4-7.3.5-2 1.2-4 1.7-6 .3-.9.5-1.8.7-2.7.2-.7.1-1.3-.6-1.8-.3-.2-.5-.4-.9-.7-.3.4-.6.6-.8.9-.4.6-.8 1.2-1.2 1.9-.8 1.1-.9 1.2-2.1.8l-3.6-1.2c-.8-.3-1.2-.8-1.3-1.6-.4-2-.6-4-.1-6 .6-2.4 1.8-4.5 3.8-5.9.3-.2.8-.4 1.1-.3 1.8.4 3.6.8 5.3 1.5.4 1.7-.1 3.3.3 4.9.9-.2 1.7-.4 2.7-.6 1.1-3.3 2.4-6.7 3.2-10.2-.6-.5-1.2-.9-1.9-1.4-.3.3-.6.5-.8.8-.7 1.1-1.3 2.1-2 3.2-.4 0-.8 0-1.1-.1-1.3-.5-2.6-1-4-1.4-.8-.3-1.2-.8-1.4-1.6-.2-1.3-.3-2.5-.4-3.8 0-3.3 1.4-5.9 3.8-8.1.5-.5 1.1-.6 1.8-.4 1.6.5 3.2.9 4.8 1.3.6 1.7-.1 3.4.4 4.9.7.4.9-.4 1.3-.4s.8.1 1.2.1c.6-1.2 2.9-8.1 3.4-10.4-.3-.2-.6-.5-.9-.7-.3-.2-.6-.5-1-.7-1.4 1-1.6 2.8-2.9 3.9-.3 0-.6.1-.9 0-1.3-.4-2.7-.9-4-1.3-.9-.3-1.3-.9-1.5-1.8-.4-2-.6-4.1-.1-6 .7-2.6 2.1-4.9 4.4-6.4 2 .5 4 .8 5.9 1.7 0 1.7.1 3.2.1 4.8.3 0 .6.2.7.1.6-.5 1.3-.7 2.1-.2 1.4-3.6 2.3-7 3.3-10.5-.7-.5-1.2-.9-1.8-1.4-1.4 1-1.8 2.8-3 3.9-1.5-.1-4.3-1-5.9-1.9-.8-2.2-.8-4.5-.6-6.9.1-1.4.9-2.5 1.6-3.6.6-.9 1.4-1.7 2.2-2.6.4-.4.9-.6 1.5-.4 1.7.5 3.3 1 5 1.4.7 1.7-.1 3.4.4 4.9.6.5.8-.2 1.2-.3.4-.1.9 0 1.4 0 1.4-3.3 2.2-6.8 3.3-10.3-.7-.5-1.3-.9-1.9-1.3-1.4 1.1-1.8 2.9-3.2 4.1-1.6-.5-3.3-1.1-4.9-1.6-.6-.2-.9-.6-1-1.1-.6-2.2-.7-4.4-.3-6.6.3-1.7 1.2-3.2 2.4-4.6 2-2.2 1.8-2 4.3-1.3 1.2.3 2.3.6 3.5.9.7 1.7-.2 3.5.5 5.2.5-.2.9-.5 1.3-.6.4-.1.8 0 1.3 0 .9-1.6 1.2-3.4 1.8-5 .6-1.7 1-3.4 1.5-5.2-.7-.5-1.3-.9-2-1.4-.5.6-.9 1.2-1.4 1.8-.3.5-.6 1-1 1.5-.5.7-.8.8-1.5.6-1.4-.5-2.8-.9-4.2-1.4-.6-.2-.9-.6-1-1.1-.6-2.2-.7-4.4-.3-6.6.5-2.3 1.9-4.3 3.6-5.9.4-.4.9-.6 1.5-.4 1.5.4 3 .7 4.5 1.1.7.2.9.6.9 1.3 0 1.1-.1 2.3-.1 3.4 0 .7.5.9 1 .4.6-.6 1.3-.1 2-.5.2-.4.4-.8.6-1.3 2.7-5.9 7.2-9.5 13.5-10.9 4.4-.9 8.6-.4 12.5 1.7 3.2 1.7 5.9 4.1 7.8 7.3 2.4 4.1 3.1 8.4 2.5 12.9-.2 1.3-.4 2.5-.6 3.8-1 4.7-3.3 8.5-7.2 11.4-1.7 1.2-3.5 2.2-5.3 3.2-.7.4-1.5 1-2.1 1.5-.7.7-1 1.5-.9 2.5.6 5.6 1.3 11.2 2.6 16.6 1.6 6.6 3.2 13.1 4.8 19.7 1.4 6.1 2.1 12.2 2.5 18.5.1 1.1-.2 2.1-.3 3.2-.1.6-.4 1-.9 1.2-.6.3-1.3.7-1.9 1.1-3 1.6-5.8 3.6-8.3 5.9l-2.4 2.1c-1 .9-1.8 2-2.3 3.2-1.4 2.9-2.4 5.9-2.8 9.2-.3 3.1-.6 6.3-.4 9.4.1 1.2-.1 2.4-.1 3.6.2 14.1.4 28.1.5 42.2.1 7.6.1 15.1.2 22.7.1 10.2.3 20.3.4 30.5.1 6.6.1 13.2.2 19.9.1 7.6.2 16.1.3 23.7.1 8.2.2 15.3.3 23.5"/><path fill="#2B3990" d="M281 330.2l.3 15c.2 19 .5 38 .7 57l.3 25.9.3 25.5.3 23.7c.1 6.6.2 13.2.2 19.9 0 2.2.9 3.7 2.8 4.7 2.6 1.3 5.4 2.4 8.2 3.2 4.1 1.2 8.3 1.5 12.5 1.2 5.9-.4 11.4-2.3 16.2-5.8 3.5-2.6 6.1-5.9 8-9.9 1.3-2.9 2.1-5.9 2.7-9l2.1-10.2c.3-1.7.9-3.4 1.9-4.8 2.1-3.1 5-4.7 8.8-4.9 2.5-.1 4.7.6 6.9 1.8 3.1 1.7 5.4 4.3 7.1 7.4 3 5.3 4.6 11.1 5.4 17.1.9 6.7.6 13.4-.5 20-1.2 7.4-3.3 14.5-6 21.4-2.1 5.4-4.3 10.8-6.8 16.1-1.7 3.6-2.8 7.4-3.6 11.2-1.1 4.7-1.4 9.5-1.1 14.3.4 4.9 1.2 9.7 3 14.3 2 5.3 4.5 10.3 6.9 15.4 2 4 3.8 8.1 5.9 12.1 2.2 4.3 4.2 8.7 6.1 13.1 3.5 8.1 6.2 16.4 8.6 24.8 1.7 5.9 3 11.8 3.8 17.8 1 7.5 1.2 14.9.8 22.4-.4 6-1.7 11.8-3.6 17.4-1.8 5.3-4.3 10.2-7.4 14.9-2.5 3.7-5.3 7.2-8.5 10.4-3.9 3.9-8.3 7.2-13 10-2.7 1.6-5.6 2.9-8.5 4.1-5.4 2.3-11.1 4-16.8 5.3-8.5 2-17.1 3.1-25.8 3.1-10.2.1-20.5.2-30.7.2h-1.8c-.4.5-.7 1-1.1 1.5.6 1 1.3 2.1 1.9 3.1.5.9.4 1.5-.5 2-.5.3-1.1.5-1.6.7-.7.3-1.4.5-2.1.7h-2.4c-.6-.2-1.1-.4-1.7-.6-.6-.2-1.3-.4-1.9-.7-1.1-.6-1.2-1.3-.6-2.3.6-1 1.2-1.9 1.8-2.9-.4-.6-.7-1.2-1.1-1.8-2.8-.1-5.6-.3-8.4-.4-3.2-.2-6.4-.3-9.6-.6-3.5-.3-6.9-.8-10.4-1.1-4.9-.5-9.8-1.2-14.7-2.1-7-1.2-13.8-3.1-20.4-5.7-6.7-2.7-13.2-5.9-19.2-10-2.6-1.8-5.2-3.5-7.7-5.5-5.8-4.6-10.9-9.9-14.9-16.2-3.8-6-6.6-12.4-7.9-19.4-.4-2.4-.7-4.8-.9-7.2-.3-2.8-.4-5.6-.6-8.4-.1-1.3.1-2.5.1-3.8l.3-3.6c.2-4.3.7-8.7 1.4-13 .7-3.8 1.6-7.6 2.5-11.4.9-3.7 1.9-7.4 3.2-11 .9-2.3 1.5-4.7 2.4-7 2.4-6.4 5-12.7 7.8-18.9l2.4-5.7 6.3-15c1.2-2.8 2.4-5.6 3.6-8.5 1.8-4.4 3.2-8.9 4.1-13.6 1.1-5.9 1.5-11.9 1-18-.4-6-1.6-11.9-3.4-17.7-1.8-5.9-3.8-11.7-5.6-17.6-1-3.1-1.9-6.3-2.9-9.4-2.7-8.8-4.9-17.8-6.8-26.8-.8-3.9-1.3-7.9-1.5-11.9-.1-2.8-.3-5.6-.2-8.4.2-6.7.9-13.3 2.6-19.8 1.1-4.3 2.8-8.4 5.2-12.1 1.3-2.1 2.8-4.1 4.6-5.8 3-2.9 6.4-5 10.7-5.5.9-.1 1.5-.4 1.9-1.2.3-.5.6-1 1-1.6l1.8.6c.2-.2.3-.4.5-.5 0-.2 0-.4-.1-.4-.8-.6-1-1.3-1-2.3.1-.8-.1-1.6.1-2.3.6-.5 1.1-.3 1.6-.1 2.6 1.3 5.1 2.7 7.4 4.4.3.2.5.5.7.7.1.1 0 .3.1.5-.9.9-2.1 1.3-3.2 1.8-.3.1-.8-.2-1.1-.2-.2 0-.5.2-.6.4-.1.2 0 .5.1.7.3.3.7.6 1.1.9-.2.6-.4 1.2-.7 1.8.2.3.4.8.6 1.1 1 1.6 1.5 3.3 1.6 5.1l1.2 16.8c.3 4.6 1.4 9.1 3.6 13.3 4.1 7.9 10.2 13.6 18.7 16.6 4.8 1.7 9.8 2.1 14.9 1.4 3.6-.5 6.6-2.4 8.8-5.4.5-.7 1-1.4 1.4-2.2.8-1.6 1.3-3.2 1.3-5 0-4.8.1-9.5.2-14.3.1-4.1.1-8.2.2-12.2.2-10.6.3-21.1.5-31.7l.3-18.9c.2-17.2.5-33.4.7-50.6"/></g><path fill="#603913" d="M282.9 503.4c0 3-2.3 5.4-5.3 5.4-9.7 1.3-19.6 1.3-29.4.1l-.9-.1c-3 0-5.4-2.5-5.3-5.5l4.2-338c0-2.9 2.4-5.3 5.4-5.3h22.1c2.9 0 5.3 2.4 5.4 5.3l3.8 338.1z"/><path fill="#E6E7E8" d="M356.2 469.2c.8 2.4 1.7 4.7 2.4 7.1.4 1.2.5 2.5.8 3.8.8 4 .7 8.1.6 12.2 0 1.2-.3 2.4-.5 3.7-.1.8-.2 1.7-.4 2.5-.5 2.4-.9 4.7-1.4 7.1-.5 2.1-1.1 4.3-1.7 6.4-.4 1.5-1 3-1.5 4.4-.6 1.7-1.2 3.4-1.9 5-.8 2-1.7 4-2.5 6.1-1.2 2.9-2.4 5.8-3.6 8.8-1 2.5-2 4.9-2.8 7.4-.8 2.7-1.6 5.4-2.2 8.1-.5 2.5-.7 5.1-1 7.6-.2 2.2-.4 4.4-.3 6.6.1 2.4.4 4.8.8 7.2.3 2.1.7 4.3 1.2 6.4.6 2.5 1.3 5 2.3 7.4 1.3 3.4 2.8 6.8 4.3 10.2 2.5 5.4 5.1 10.8 7.6 16.1 1.3 2.8 2.7 5.6 3.9 8.5 1.6 3.5 3.1 7 4.6 10.6 1.6 3.8 3.1 7.7 4.6 11.6 1 2.6 1.9 5.1 2.8 7.7.8 2.5 1.5 5 2.2 7.5.6 2.5 1.1 5 1.7 7.5.6 2.4.6 4.8.6 7.3 0 4.1-2.8 7.9-7 9.1-2.5.7-4.7.3-6.8-.7-2.3-1.1-4.4-2.4-6.6-3.7-.4-.2-.6-.7-.9-1-1-.9-2.1-1.9-3.2-2.8-.8-.7-1.6-1.3-2.4-2-2-1.6-3.9-3.3-5.8-4.9-1.4-1.2-2.8-2.5-4.3-3.6-2.9-2.2-5.9-4.5-8.9-6.6-3.6-2.5-7.8-4-12-5.3-1.6-.5-3.2-.7-4.9-1-1.9-.3-3.7-.6-5.6-.9-1-.1-2-.3-3.1-.3l-11.7-.3c-1.4 0-1.5-.1-1.5-1.5v-5.3c0-1.6-.6-2.9-2.1-3.6-.4-.2-.9-.3-1.3-.3H238.4c-2.5 0-4 1.4-4 3.9v5.7c0 .5-.1.8-.7.8-1.6 0-3.3.1-4.9-.1-2.6-.3-5.1-1-7.4-2.3-2.4-1.3-4.6-2.9-6.3-5-1.2-1.4-2.1-3-3.1-4.5-1.3-2.1-2.3-4.4-2.9-6.8-.5-1.7-.9-3.4-1.2-5.1-.3-1.9-.6-3.9-.8-5.8 0-.2-.1-.5-.1-.8 0-2.7-.1-5.4 0-8 .1-1.8.3-3.7.6-5.5.2-1.3.4-2.7.6-4 .4-1.9.8-3.9 1.3-5.8.7-2.5 1.5-5.1 2.4-7.6 1.1-3.1 2.2-6.2 3.4-9.2 1.4-3.7 3-7.2 4.3-10.9 1.3-3.6 2.4-7.4 3.5-11.1.8-2.8 1.4-5.7 2-8.5.4-2.2.7-4.4 1-6.6.3-2.2.4-4.4.6-6.6.6-4.5.3-9.1.2-13.6 0-2.5-.5-5-.8-7.5-.2-1.7-.4-3.4-.7-5.1-.2-1.1-.4-2.3-.7-3.4-.5-2.1-1-4.2-1.4-6.3-.5-2.1-1-4.2-1.4-6.3-.3-1.6-.6-3.2-.7-4.8-.1-2.3 1-4.1 3-5.2.7-.4 1.8-.3 2.7-.4 2.3-.2 4.3.5 6.4 1.4 2 .9 4.1 1.8 6.2 2.6 1 .4 1.2.5 1.2 1.6v16.4c0 2 2 4.2 4 4.5 1.5.2 3.1.6 4.6.8.9.2 1.8.3 2.8.3 3 .1 6.1.2 9.2.3 1.4 0 2.7.1 4.1 0 2.2-.1 4.3-.3 6.5-.6 1.8-.2 3.7-.4 5.5-.7 1.4-.2 2.8-.4 4-1.3.8-.7 1.4-1.4 1.7-2.4.2-.8.6-1 1.3-.6 3.2 1.4 6.5 2.9 9.8 4.2 2.4.9 4.8 1.7 7.3 2.2 3.6.8 7.2.9 10.8.6 3.3-.3 6.6-1 9.8-2.5 4.5-2.1 8.5-4.8 12.2-8.2 2.9-2.8 5.6-5.8 7.6-9.3 1.2-2.1 2.3-4.4 3.2-6.6 1-2.7 1.8-5.5 2.6-8.3.5-1.8.7-3.7 1-5.5.2-1 .4-2 .6-2.9 2.3-3.3 5.5-2.2 6.9.3zm-92.7 158.9H283c.3 0 .7 0 1-.1 2.2-.4 3.6-1.9 4.8-3.6.4-.6.6-1.5.7-2.3.1-5.4 0-10.8 0-16.3 0-1.3-.5-2.5-1.3-3.5-1.6-2-3.7-2.9-6.2-2.9h-35.1c-1.9 0-3.8.1-5.6.6-2.4.6-4.7 3.3-4.7 5.8v14c0 .8.2 1.6.3 2.5.4 3.2 4.1 5.7 7 5.7 6.6.1 13.1.1 19.6.1zm-6.9-106.4h-13.3c-2.3 0-4.3.6-5.9 2.4-1 1.2-1.8 2.4-1.7 4.1.1.6.2 1.2.3 1.9.6 3.3 2.9 5.3 6.5 5.3 10.4-.1 20.8.3 31.2-.3 3.2-.2 6.3 0 9.5 0 1.4 0 2.6-.5 3.6-1.5 1.8-1.7 2.5-3.8 2.1-6.3-.6-3.6-3.1-5.8-6.6-5.8-4 0-7.9-.1-11.9.2-4.6.3-9.2 0-13.8 0zm6 59.3h20.3c1 0 2-.2 2.9-.6 2.9-1.2 4.5-5.3 3.4-8.2-1.1-2.7-3.9-4.6-6.7-4.6-12.7.1-25.5 0-38.2 0-1 0-2 .2-2.9.4-.6.1-1.2.3-1.7.7-2.4 1.8-3.7 4.1-2.9 7.2.7 2.9 3.2 5.1 6.2 5.1 6.4-.1 13 0 19.6 0zm76.9 59.4c0-2.6-2.1-4.7-4.7-4.6-2.6 0-4.6 2.1-4.6 4.6 0 2.6 2 4.7 4.6 4.7 2.6 0 4.7-2 4.7-4.7zm26.1 22.7c0-2.6-2.1-4.6-4.7-4.6s-4.7 2.1-4.7 4.7 2.1 4.6 4.6 4.6c2.8 0 4.8-2.1 4.8-4.7zm-60.9-43c-2.6 0-4.6 2-4.6 4.6 0 2.6 2.1 4.7 4.7 4.7s4.6-2.1 4.6-4.6c-.1-2.6-2.1-4.7-4.7-4.7z"/><g><path fill="#fff" d="M282.7 534.8h-40.3c-3.4 0-6.3-2.8-6.3-6.3 0-3.4 2.8-6.3 6.3-6.3h40.3c3.4 0 6.3 2.8 6.3 6.3-.1 3.4-2.9 6.3-6.3 6.3zM282.7 580.8h-40.3c-3.4 0-6.3-2.8-6.3-6.3 0-3.4 2.8-6.3 6.3-6.3h40.3c3.4 0 6.3 2.8 6.3 6.3-.1 3.4-2.9 6.3-6.3 6.3zM282.7 628.1h-40.3c-3.4 0-6.3-2.8-6.3-6.3v-16.3c0-3.4 2.8-6.3 6.3-6.3h40.3c3.4 0 6.3 2.8 6.3 6.3v16.3c-.1 3.4-2.9 6.3-6.3 6.3z"/><circle fill="#939598" cx="246.7" cy="528.8" r="1.8"/><circle fill="#939598" cx="253" cy="528.8" r="1.8"/><circle fill="#939598" cx="259.3" cy="528.8" r="1.8"/><circle fill="#939598" cx="265.5" cy="528.8" r="1.8"/><circle fill="#939598" cx="271.8" cy="528.8" r="1.8"/><circle fill="#939598" cx="278.1" cy="528.8" r="1.8"/><circle fill="#939598" cx="246.7" cy="574.8" r="1.8"/><circle fill="#939598" cx="253" cy="574.8" r="1.8"/><circle fill="#939598" cx="259.3" cy="574.8" r="1.8"/><circle fill="#939598" cx="265.5" cy="574.8" r="1.8"/><circle fill="#939598" cx="271.8" cy="574.8" r="1.8"/><circle fill="#939598" cx="278.1" cy="574.8" r="1.8"/><circle fill="#939598" cx="246.7" cy="607.8" r="1.8"/><circle fill="#939598" cx="253" cy="607.8" r="1.8"/><circle fill="#939598" cx="259.3" cy="607.8" r="1.8"/><circle fill="#939598" cx="265.5" cy="607.8" r="1.8"/><circle fill="#939598" cx="271.8" cy="607.8" r="1.8"/><circle fill="#939598" cx="278.1" cy="607.8" r="1.8"/><circle fill="#939598" cx="246.7" cy="618.8" r="1.8"/><circle fill="#939598" cx="253" cy="618.8" r="1.8"/><circle fill="#939598" cx="259.3" cy="618.8" r="1.8"/><circle fill="#939598" cx="265.5" cy="618.8" r="1.8"/><circle fill="#939598" cx="271.8" cy="618.8" r="1.8"/><circle fill="#939598" cx="278.1" cy="618.8" r="1.8"/></g><g><path fill="#fff" d="M278.2 162.6h-31c-.3 0-.6-.3-.6-.6v-1.5c0-.3.3-.6.6-.6h31c.3 0 .6.3.6.6v1.5c0 .3-.3.6-.6.6z"/><ellipse fill="#9B8579" cx="304.5" cy="624.7" rx="4.8" ry="4.7"/><path d="M304.5 620.4h.3v1.2h-.3z"/><ellipse transform="matrix(.549 .836 -.836 .549 686.446 9.449)" fill="#9B8579" cx="334.5" cy="640.7" rx="4.8" ry="4.7"/><path d="M338.057 638.343l.165.25-1.003.66-.166-.252z"/><ellipse transform="matrix(.88 -.476 .476 .88 -271.816 251.217)" fill="#9B8579" cx="360.5" cy="662.7" rx="4.8" ry="4.7"/><path d="M358.41 658.915l.265-.142.57 1.055-.263.143z"/></g></svg>